<?xml version="1.0" encoding="utf-8"?>
<!-- Generator: Adobe Illustrator 22.1.0, SVG Export Plug-In . SVG Version: 6.00 Build 0)  -->
<svg version="1.1" id="Layer_1" xmlns="http://www.w3.org/2000/svg" xmlns:xlink="http://www.w3.org/1999/xlink" x="0px" y="0px"
	 viewBox="0 0 50.3 50.3" style="enable-background:new 0 0 50.3 50.3;" xml:space="preserve">
<style type="text/css">
	.st0{opacity:0.2;}
	.st1{clip-path:url(#SVGID_2_);}
	.st2{fill:#FAFAFA;}
</style>
<g class="st0">
	<g>
		<g>
			<defs>
				<circle id="SVGID_1_" cx="25.1" cy="25.1" r="25.1"/>
			</defs>
			<clipPath id="SVGID_2_">
				<use xlink:href="#SVGID_1_"  style="overflow:visible;"/>
			</clipPath>
			<g class="st1">
				
					<rect x="7.2" y="7.8" transform="matrix(0.5528 -0.8333 0.8333 0.5528 -38.2031 29.3935)" class="st2" width="2.2" height="85"/>
				
					<rect x="9.7" y="3.9" transform="matrix(0.5528 -0.8333 0.8333 0.5528 -33.8349 29.7703)" class="st2" width="2.2" height="85"/>
				<rect x="12.3" y="0" transform="matrix(0.5528 -0.8333 0.8333 0.5528 -29.4548 30.1908)" class="st2" width="2.2" height="85"/>
				
					<rect x="14.8" y="-3.7" transform="matrix(0.5528 -0.8333 0.8333 0.5528 -25.2379 30.598)" class="st2" width="2.2" height="85"/>
				
					<rect x="17.2" y="-7.5" transform="matrix(0.5528 -0.8333 0.8333 0.5528 -20.9891 30.95)" class="st2" width="2.2" height="85"/>
				
					<rect x="19.9" y="-11.5" transform="matrix(0.5528 -0.8333 0.8333 0.5528 -16.4639 31.3927)" class="st2" width="2.2" height="85"/>
				
					<rect x="22.6" y="-15.5" transform="matrix(0.5528 -0.8333 0.8333 0.5528 -11.9385 31.8354)" class="st2" width="2.2" height="85"/>
				
					<rect x="25.2" y="-19.5" transform="matrix(0.5528 -0.8333 0.8333 0.5528 -7.4252 32.2345)" class="st2" width="2.2" height="85"/>
				
					<rect x="27.8" y="-23.3" transform="matrix(0.5528 -0.8333 0.8333 0.5528 -3.0887 32.6667)" class="st2" width="2.2" height="85"/>
				
					<rect x="30.3" y="-27.2" transform="matrix(0.5528 -0.8333 0.8333 0.5528 1.2796 33.0435)" class="st2" width="2.2" height="85"/>
				
					<rect x="32.8" y="-30.9" transform="matrix(0.5528 -0.8333 0.8333 0.5528 5.4966 33.4508)" class="st2" width="2.2" height="85"/>
				
					<rect x="35.3" y="-34.7" transform="matrix(0.5528 -0.8333 0.8333 0.5528 9.7571 33.8464)" class="st2" width="2.2" height="85"/>
				
					<rect x="38" y="-38.7" transform="matrix(0.5528 -0.8333 0.8333 0.5528 14.2823 34.2891)" class="st2" width="2.2" height="85"/>
				
					<rect x="40.6" y="-42.7" transform="matrix(0.5528 -0.8333 0.8333 0.5528 18.7958 34.6882)" class="st2" width="2.2" height="85"/>
			</g>
		</g>
	</g>
</g>
</svg>
