<?xml version="1.0" encoding="utf-8"?>
<!-- Generator: Adobe Illustrator 22.1.0, SVG Export Plug-In . SVG Version: 6.00 Build 0)  -->
<svg version="1.1" id="Layer_1" xmlns="http://www.w3.org/2000/svg" xmlns:xlink="http://www.w3.org/1999/xlink" x="0px" y="0px"
	 viewBox="0 0 234 270.4" style="enable-background:new 0 0 234 270.4;" xml:space="preserve">
<style type="text/css">
	.st0{clip-path:url(#SVGID_2_);}
	.st1{opacity:0.2;}
	.st2{fill:#FAFAFA;}
</style>
<g>
	<g>
		<defs>
			<polygon id="SVGID_1_" points="234,0 231.4,134.2 232.1,270.4 112.3,196 0,126.2 116.6,62.9 			"/>
		</defs>
		<clipPath id="SVGID_2_">
			<use xlink:href="#SVGID_1_"  style="overflow:visible;"/>
		</clipPath>
		<g class="st0">
			<g class="st1">
				<g>
					
						<rect x="-5.8" y="-53" transform="matrix(0.5277 -0.8494 0.8494 0.5277 41.4844 -27.2911)" class="st2" width="4" height="4.1"/>
					
						<rect x="9.4" y="-43.6" transform="matrix(0.5277 -0.8494 0.8494 0.5277 40.6391 -9.9608)" class="st2" width="4" height="4.1"/>
					
						<rect x="24.6" y="-34.1" transform="matrix(0.5277 -0.8494 0.8494 0.5277 39.7889 7.4667)" class="st2" width="4" height="4.1"/>
					
						<rect x="40" y="-24.6" transform="matrix(0.5277 -0.8494 0.8494 0.5277 38.9635 24.9872)" class="st2" width="4" height="4.1"/>
					
						<rect x="56.2" y="-14.4" transform="matrix(0.5277 -0.8494 0.8494 0.5277 37.9932 43.5587)" class="st2" width="4" height="4.1"/>
					<rect x="71.3" y="-5" transform="matrix(0.5277 -0.8494 0.8494 0.5277 37.1354 60.8426)" class="st2" width="4" height="4.1"/>
					
						<rect x="86.7" y="4.6" transform="matrix(0.5277 -0.8494 0.8494 0.5277 36.2206 78.5021)" class="st2" width="4" height="4.1"/>
					
						<rect x="102" y="14.1" transform="matrix(0.5277 -0.8494 0.8494 0.5277 35.3705 95.9295)" class="st2" width="4" height="4.1"/>
					
						<rect x="117.2" y="23.6" transform="matrix(0.5277 -0.8494 0.8494 0.5277 34.5328 113.4035)" class="st2" width="4" height="4.1"/>
					
						<rect x="132.5" y="33.1" transform="matrix(0.5277 -0.8494 0.8494 0.5277 33.6951 130.8776)" class="st2" width="4" height="4.1"/>
					
						<rect x="147.9" y="42.6" transform="matrix(0.5277 -0.8494 0.8494 0.5277 32.8697 148.3982)" class="st2" width="4" height="4.1"/>
					
						<rect x="163" y="52.1" transform="matrix(0.5277 -0.8494 0.8494 0.5277 31.8806 165.7362)" class="st2" width="4" height="4.1"/>
					
						<rect x="176.6" y="60.6" transform="matrix(0.5277 -0.8494 0.8494 0.5277 31.1334 181.3226)" class="st2" width="4" height="4.1"/>
				</g>
				<g>
					
						<rect x="-15.6" y="-37.3" transform="matrix(0.5277 -0.8494 0.8494 0.5277 23.4911 -28.1781)" class="st2" width="4" height="4.1"/>
					
						<rect x="-0.3" y="-27.8" transform="matrix(0.5277 -0.8494 0.8494 0.5277 22.641 -10.7507)" class="st2" width="4" height="4.1"/>
					
						<rect x="14.8" y="-18.4" transform="matrix(0.5277 -0.8494 0.8494 0.5277 21.7956 6.5797)" class="st2" width="4" height="4.1"/>
					
						<rect x="30.2" y="-8.8" transform="matrix(0.5277 -0.8494 0.8494 0.5277 20.9655 24.1973)" class="st2" width="4" height="4.1"/>
					
						<rect x="46.4" y="1.3" transform="matrix(0.5277 -0.8494 0.8494 0.5277 19.9999 42.6718)" class="st2" width="4" height="4.1"/>
					
						<rect x="61.5" y="10.7" transform="matrix(0.5277 -0.8494 0.8494 0.5277 19.1421 59.9556)" class="st2" width="4" height="4.1"/>
					<rect x="77" y="20.3" transform="matrix(0.5277 -0.8494 0.8494 0.5277 18.3244 77.6198)" class="st2" width="4" height="4.1"/>
					
						<rect x="92.2" y="29.8" transform="matrix(0.5277 -0.8494 0.8494 0.5277 17.4742 95.0472)" class="st2" width="4" height="4.1"/>
					
						<rect x="107.5" y="39.2" transform="matrix(0.5277 -0.8494 0.8494 0.5277 16.6365 112.5212)" class="st2" width="4" height="4.1"/>
					
						<rect x="122.7" y="48.8" transform="matrix(0.5277 -0.8494 0.8494 0.5277 15.7018 129.9906)" class="st2" width="4" height="4.1"/>
					
						<rect x="138.1" y="58.3" transform="matrix(0.5277 -0.8494 0.8494 0.5277 14.8764 147.5112)" class="st2" width="4" height="4.1"/>
					
						<rect x="153.2" y="67.8" transform="matrix(0.5277 -0.8494 0.8494 0.5277 13.9844 164.8539)" class="st2" width="4" height="4.1"/>
					
						<rect x="166.9" y="76.3" transform="matrix(0.5277 -0.8494 0.8494 0.5277 13.2372 180.4403)" class="st2" width="4" height="4.1"/>
				</g>
				<g>
					
						<rect x="-24.3" y="-23.3" transform="matrix(0.5277 -0.8494 0.8494 0.5277 7.4954 -28.9441)" class="st2" width="4" height="4.1"/>
					
						<rect x="-9.1" y="-13.8" transform="matrix(0.5277 -0.8494 0.8494 0.5277 6.6499 -11.6136)" class="st2" width="4" height="4.1"/>
					<rect x="6.2" y="-4.4" transform="matrix(0.5277 -0.8494 0.8494 0.5277 5.8969 5.8185)" class="st2" width="4" height="4.1"/>
					<rect x="21.5" y="5.1" transform="matrix(0.5277 -0.8494 0.8494 0.5277 4.9745 23.3344)" class="st2" width="4" height="4.1"/>
					
						<rect x="37.7" y="15.3" transform="matrix(0.5277 -0.8494 0.8494 0.5277 4.0041 41.9059)" class="st2" width="4" height="4.1"/>
					
						<rect x="52.8" y="24.7" transform="matrix(0.5277 -0.8494 0.8494 0.5277 3.1463 59.1898)" class="st2" width="4" height="4.1"/>
					<rect x="68.3" y="34.3" transform="matrix(0.5277 -0.8494 0.8494 0.5277 2.3286 76.854)" class="st2" width="4" height="4.1"/>
					
						<rect x="83.5" y="43.8" transform="matrix(0.5277 -0.8494 0.8494 0.5277 1.4785 94.2814)" class="st2" width="4" height="4.1"/>
					
						<rect x="98.8" y="53.3" transform="matrix(0.5277 -0.8494 0.8494 0.5277 0.6408 111.7554)" class="st2" width="4" height="4.1"/>
					
						<rect x="114.1" y="62.7" transform="matrix(0.5277 -0.8494 0.8494 0.5277 -0.197 129.2294)" class="st2" width="4" height="4.1"/>
					
						<rect x="129.4" y="72.3" transform="matrix(0.5277 -0.8494 0.8494 0.5277 -1.1194 146.7453)" class="st2" width="4" height="4.1"/>
					
						<rect x="144.6" y="81.8" transform="matrix(0.5277 -0.8494 0.8494 0.5277 -2.0113 164.0881)" class="st2" width="4" height="4.1"/>
					
						<rect x="158.2" y="90.3" transform="matrix(0.5277 -0.8494 0.8494 0.5277 -2.7586 179.6745)" class="st2" width="4" height="4.1"/>
				</g>
				<g>
					
						<rect x="13.7" y="-84.4" transform="matrix(0.5277 -0.8494 0.8494 0.5277 77.3739 -25.522)" class="st2" width="4" height="4.1"/>
					
						<rect x="28.9" y="-75" transform="matrix(0.5277 -0.8494 0.8494 0.5277 76.5285 -8.1915)" class="st2" width="4" height="4.1"/>
					
						<rect x="44.1" y="-65.5" transform="matrix(0.5277 -0.8494 0.8494 0.5277 75.6784 9.2359)" class="st2" width="4" height="4.1"/>
					<rect x="59.5" y="-56" transform="matrix(0.5277 -0.8494 0.8494 0.5277 74.853 26.7565)" class="st2" width="4" height="4.1"/>
					
						<rect x="75.7" y="-45.8" transform="matrix(0.5277 -0.8494 0.8494 0.5277 73.8826 45.328)" class="st2" width="4" height="4.1"/>
					
						<rect x="90.8" y="-36.4" transform="matrix(0.5277 -0.8494 0.8494 0.5277 73.0248 62.6119)" class="st2" width="4" height="4.1"/>
					
						<rect x="106.3" y="-26.8" transform="matrix(0.5277 -0.8494 0.8494 0.5277 72.2073 80.276)" class="st2" width="4" height="4.1"/>
					
						<rect x="121.5" y="-17.4" transform="matrix(0.5277 -0.8494 0.8494 0.5277 71.3618 97.6064)" class="st2" width="4" height="4.1"/>
					
						<rect x="136.7" y="-7.8" transform="matrix(0.5277 -0.8494 0.8494 0.5277 70.427 115.0757)" class="st2" width="4" height="4.1"/>
					
						<rect x="152" y="1.6" transform="matrix(0.5277 -0.8494 0.8494 0.5277 69.5893 132.5497)" class="st2" width="4" height="4.1"/>
					
						<rect x="167.4" y="11.2" transform="matrix(0.5277 -0.8494 0.8494 0.5277 68.7592 150.1673)" class="st2" width="4" height="4.1"/>
					
						<rect x="182.6" y="20.7" transform="matrix(0.5277 -0.8494 0.8494 0.5277 67.8672 167.5102)" class="st2" width="4" height="4.1"/>
					
						<rect x="196.2" y="29.1" transform="matrix(0.5277 -0.8494 0.8494 0.5277 67.12 183.0965)" class="st2" width="4" height="4.1"/>
				</g>
				<g>
					
						<rect x="4" y="-68.7" transform="matrix(0.5277 -0.8494 0.8494 0.5277 59.4777 -26.4043)" class="st2" width="4" height="4.1"/>
					
						<rect x="19.2" y="-59.3" transform="matrix(0.5277 -0.8494 0.8494 0.5277 58.6323 -9.0738)" class="st2" width="4" height="4.1"/>
					
						<rect x="34.4" y="-49.8" transform="matrix(0.5277 -0.8494 0.8494 0.5277 57.7822 8.3536)" class="st2" width="4" height="4.1"/>
					
						<rect x="49.7" y="-40.2" transform="matrix(0.5277 -0.8494 0.8494 0.5277 56.8598 25.8695)" class="st2" width="4" height="4.1"/>
					
						<rect x="65.9" y="-30.1" transform="matrix(0.5277 -0.8494 0.8494 0.5277 55.8894 44.441)" class="st2" width="4" height="4.1"/>
					
						<rect x="81" y="-20.7" transform="matrix(0.5277 -0.8494 0.8494 0.5277 55.0316 61.7249)" class="st2" width="4" height="4.1"/>
					
						<rect x="96.5" y="-11.1" transform="matrix(0.5277 -0.8494 0.8494 0.5277 54.2139 79.3891)" class="st2" width="4" height="4.1"/>
					
						<rect x="111.7" y="-1.7" transform="matrix(0.5277 -0.8494 0.8494 0.5277 53.3684 96.7194)" class="st2" width="4" height="4.1"/>
					
						<rect x="127" y="7.8" transform="matrix(0.5277 -0.8494 0.8494 0.5277 52.5307 114.1934)" class="st2" width="4" height="4.1"/>
					
						<rect x="142.3" y="17.3" transform="matrix(0.5277 -0.8494 0.8494 0.5277 51.693 131.6674)" class="st2" width="4" height="4.1"/>
					
						<rect x="157.7" y="26.9" transform="matrix(0.5277 -0.8494 0.8494 0.5277 50.8629 149.2851)" class="st2" width="4" height="4.1"/>
					
						<rect x="172.8" y="36.4" transform="matrix(0.5277 -0.8494 0.8494 0.5277 49.874 166.6232)" class="st2" width="4" height="4.1"/>
					
						<rect x="186.4" y="44.9" transform="matrix(0.5277 -0.8494 0.8494 0.5277 49.1267 182.2096)" class="st2" width="4" height="4.1"/>
				</g>
				<g>
					
						<rect x="33.2" y="-115.8" transform="matrix(0.5277 -0.8494 0.8494 0.5277 113.2681 -23.8498)" class="st2" width="4" height="4.1"/>
					
						<rect x="48.5" y="-106.4" transform="matrix(0.5277 -0.8494 0.8494 0.5277 112.5151 -6.4176)" class="st2" width="4" height="4.1"/>
					
						<rect x="63.6" y="-97" transform="matrix(0.5277 -0.8494 0.8494 0.5277 111.6696 10.9128)" class="st2" width="4" height="4.1"/>
					
						<rect x="79" y="-87.4" transform="matrix(0.5277 -0.8494 0.8494 0.5277 110.7425 28.5258)" class="st2" width="4" height="4.1"/>
					
						<rect x="95.2" y="-77.2" transform="matrix(0.5277 -0.8494 0.8494 0.5277 109.7721 47.0972)" class="st2" width="4" height="4.1"/>
					
						<rect x="110.3" y="-67.9" transform="matrix(0.5277 -0.8494 0.8494 0.5277 108.919 64.284)" class="st2" width="4" height="4.1"/>
					
						<rect x="125.8" y="-58.2" transform="matrix(0.5277 -0.8494 0.8494 0.5277 108.0967 82.0452)" class="st2" width="4" height="4.1"/>
					
						<rect x="141" y="-48.8" transform="matrix(0.5277 -0.8494 0.8494 0.5277 107.2513 99.3757)" class="st2" width="4" height="4.1"/>
					
						<rect x="156.3" y="-39.3" transform="matrix(0.5277 -0.8494 0.8494 0.5277 106.4135 116.8497)" class="st2" width="4" height="4.1"/>
					
						<rect x="171.6" y="-29.8" transform="matrix(0.5277 -0.8494 0.8494 0.5277 105.5758 134.3237)" class="st2" width="4" height="4.1"/>
					
						<rect x="186.9" y="-20.2" transform="matrix(0.5277 -0.8494 0.8494 0.5277 104.6534 151.8395)" class="st2" width="4" height="4.1"/>
					
						<rect x="202.1" y="-10.7" transform="matrix(0.5277 -0.8494 0.8494 0.5277 103.7567 169.2794)" class="st2" width="4" height="4.1"/>
					
						<rect x="215.7" y="-2.3" transform="matrix(0.5277 -0.8494 0.8494 0.5277 103.0142 184.7687)" class="st2" width="4" height="4.1"/>
				</g>
				<g>
					
						<rect x="23.5" y="-100.1" transform="matrix(0.5277 -0.8494 0.8494 0.5277 95.3672 -24.635)" class="st2" width="4" height="4.1"/>
					
						<rect x="38.7" y="-90.7" transform="matrix(0.5277 -0.8494 0.8494 0.5277 94.5218 -7.3045)" class="st2" width="4" height="4.1"/>
					
						<rect x="53.9" y="-81.3" transform="matrix(0.5277 -0.8494 0.8494 0.5277 93.6764 10.0258)" class="st2" width="4" height="4.1"/>
					
						<rect x="69.3" y="-71.7" transform="matrix(0.5277 -0.8494 0.8494 0.5277 92.8463 27.6435)" class="st2" width="4" height="4.1"/>
					
						<rect x="85.4" y="-61.5" transform="matrix(0.5277 -0.8494 0.8494 0.5277 91.7789 46.2102)" class="st2" width="4" height="4.1"/>
					
						<rect x="100.6" y="-52.2" transform="matrix(0.5277 -0.8494 0.8494 0.5277 91.0181 63.4987)" class="st2" width="4" height="4.1"/>
					
						<rect x="116" y="-42.5" transform="matrix(0.5277 -0.8494 0.8494 0.5277 90.1034 81.1582)" class="st2" width="4" height="4.1"/>
					
						<rect x="131.2" y="-33.1" transform="matrix(0.5277 -0.8494 0.8494 0.5277 89.258 98.4887)" class="st2" width="4" height="4.1"/>
					
						<rect x="146.5" y="-23.6" transform="matrix(0.5277 -0.8494 0.8494 0.5277 88.4202 115.9627)" class="st2" width="4" height="4.1"/>
					
						<rect x="161.8" y="-14.1" transform="matrix(0.5277 -0.8494 0.8494 0.5277 87.5825 133.4367)" class="st2" width="4" height="4.1"/>
					
						<rect x="177.2" y="-4.5" transform="matrix(0.5277 -0.8494 0.8494 0.5277 86.7524 151.0543)" class="st2" width="4" height="4.1"/>
					
						<rect x="192.3" y="5" transform="matrix(0.5277 -0.8494 0.8494 0.5277 85.7635 168.3924)" class="st2" width="4" height="4.1"/>
					
						<rect x="205.9" y="13.4" transform="matrix(0.5277 -0.8494 0.8494 0.5277 85.0208 183.8817)" class="st2" width="4" height="4.1"/>
				</g>
				<g>
					
						<rect x="52.8" y="-147.3" transform="matrix(0.5277 -0.8494 0.8494 0.5277 149.2547 -22.0758)" class="st2" width="4" height="4.1"/>
					
						<rect x="68" y="-137.8" transform="matrix(0.5277 -0.8494 0.8494 0.5277 148.4046 -4.6484)" class="st2" width="4" height="4.1"/>
					
						<rect x="83.2" y="-128.4" transform="matrix(0.5277 -0.8494 0.8494 0.5277 147.5592 12.682)" class="st2" width="4" height="4.1"/>
					
						<rect x="98.6" y="-118.8" transform="matrix(0.5277 -0.8494 0.8494 0.5277 146.7292 30.2997)" class="st2" width="4" height="4.1"/>
					
						<rect x="114.7" y="-108.7" transform="matrix(0.5277 -0.8494 0.8494 0.5277 145.6664 48.7694)" class="st2" width="4" height="4.1"/>
					
						<rect x="129.8" y="-99.2" transform="matrix(0.5277 -0.8494 0.8494 0.5277 144.8086 66.0532)" class="st2" width="4" height="4.1"/>
					
						<rect x="145.3" y="-89.7" transform="matrix(0.5277 -0.8494 0.8494 0.5277 143.9909 83.7174)" class="st2" width="4" height="4.1"/>
					
						<rect x="160.5" y="-80.2" transform="matrix(0.5277 -0.8494 0.8494 0.5277 143.1408 101.1448)" class="st2" width="4" height="4.1"/>
					
						<rect x="175.8" y="-70.7" transform="matrix(0.5277 -0.8494 0.8494 0.5277 142.303 118.6189)" class="st2" width="4" height="4.1"/>
					
						<rect x="191.1" y="-61.2" transform="matrix(0.5277 -0.8494 0.8494 0.5277 141.4653 136.0929)" class="st2" width="4" height="4.1"/>
					
						<rect x="206.5" y="-51.7" transform="matrix(0.5277 -0.8494 0.8494 0.5277 140.64 153.6135)" class="st2" width="4" height="4.1"/>
					
						<rect x="221.6" y="-42.1" transform="matrix(0.5277 -0.8494 0.8494 0.5277 139.6462 171.0486)" class="st2" width="4" height="4.1"/>
					
						<rect x="235.2" y="-33.7" transform="matrix(0.5277 -0.8494 0.8494 0.5277 138.9037 186.5379)" class="st2" width="4" height="4.1"/>
				</g>
				<g>
					
						<rect x="43" y="-131.6" transform="matrix(0.5277 -0.8494 0.8494 0.5277 131.2614 -22.9628)" class="st2" width="4" height="4.1"/>
					
						<rect x="58.2" y="-122.1" transform="matrix(0.5277 -0.8494 0.8494 0.5277 130.4112 -5.5353)" class="st2" width="4" height="4.1"/>
					
						<rect x="73.4" y="-112.7" transform="matrix(0.5277 -0.8494 0.8494 0.5277 129.5659 11.7951)" class="st2" width="4" height="4.1"/>
					
						<rect x="88.8" y="-103.1" transform="matrix(0.5277 -0.8494 0.8494 0.5277 128.7358 29.4127)" class="st2" width="4" height="4.1"/>
					
						<rect x="104.9" y="-93" transform="matrix(0.5277 -0.8494 0.8494 0.5277 127.7702 47.8871)" class="st2" width="4" height="4.1"/>
					
						<rect x="120.1" y="-83.6" transform="matrix(0.5277 -0.8494 0.8494 0.5277 126.9123 65.1709)" class="st2" width="4" height="4.1"/>
					
						<rect x="135.5" y="-73.9" transform="matrix(0.5277 -0.8494 0.8494 0.5277 125.9976 82.8304)" class="st2" width="4" height="4.1"/>
					
						<rect x="150.7" y="-64.5" transform="matrix(0.5277 -0.8494 0.8494 0.5277 125.1475 100.2579)" class="st2" width="4" height="4.1"/>
					
						<rect x="166" y="-55" transform="matrix(0.5277 -0.8494 0.8494 0.5277 124.3098 117.7319)" class="st2" width="4" height="4.1"/>
					
						<rect x="181.3" y="-45.5" transform="matrix(0.5277 -0.8494 0.8494 0.5277 123.472 135.206)" class="st2" width="4" height="4.1"/>
					
						<rect x="196.7" y="-36" transform="matrix(0.5277 -0.8494 0.8494 0.5277 122.6466 152.7265)" class="st2" width="4" height="4.1"/>
					
						<rect x="211.9" y="-26.5" transform="matrix(0.5277 -0.8494 0.8494 0.5277 121.75 170.1663)" class="st2" width="4" height="4.1"/>
					
						<rect x="225.4" y="-18" transform="matrix(0.5277 -0.8494 0.8494 0.5277 120.9103 185.651)" class="st2" width="4" height="4.1"/>
				</g>
				<g>
					
						<rect x="72.3" y="-178.7" transform="matrix(0.5277 -0.8494 0.8494 0.5277 185.1442 -20.3066)" class="st2" width="4" height="4.1"/>
					
						<rect x="87.5" y="-169.3" transform="matrix(0.5277 -0.8494 0.8494 0.5277 184.2988 -2.9762)" class="st2" width="4" height="4.1"/>
					
						<rect x="102.7" y="-159.8" transform="matrix(0.5277 -0.8494 0.8494 0.5277 183.4487 14.4512)" class="st2" width="4" height="4.1"/>
					
						<rect x="118.1" y="-150.3" transform="matrix(0.5277 -0.8494 0.8494 0.5277 182.6233 31.9718)" class="st2" width="4" height="4.1"/>
					
						<rect x="134.3" y="-140.1" transform="matrix(0.5277 -0.8494 0.8494 0.5277 181.6529 50.5433)" class="st2" width="4" height="4.1"/>
					
						<rect x="149.4" y="-130.7" transform="matrix(0.5277 -0.8494 0.8494 0.5277 180.7951 67.8272)" class="st2" width="4" height="4.1"/>
					
						<rect x="164.8" y="-121.1" transform="matrix(0.5277 -0.8494 0.8494 0.5277 179.8804 85.4867)" class="st2" width="4" height="4.1"/>
					
						<rect x="180" y="-111.6" transform="matrix(0.5277 -0.8494 0.8494 0.5277 179.035 102.817)" class="st2" width="4" height="4.1"/>
					
						<rect x="195.3" y="-102.2" transform="matrix(0.5277 -0.8494 0.8494 0.5277 178.1972 120.2911)" class="st2" width="4" height="4.1"/>
					
						<rect x="210.6" y="-92.7" transform="matrix(0.5277 -0.8494 0.8494 0.5277 177.3595 137.765)" class="st2" width="4" height="4.1"/>
					
						<rect x="226" y="-83.1" transform="matrix(0.5277 -0.8494 0.8494 0.5277 176.5294 155.3828)" class="st2" width="4" height="4.1"/>
					
						<rect x="241.1" y="-73.5" transform="matrix(0.5277 -0.8494 0.8494 0.5277 175.5404 172.7208)" class="st2" width="4" height="4.1"/>
					
						<rect x="254.7" y="-65.1" transform="matrix(0.5277 -0.8494 0.8494 0.5277 174.7932 188.3072)" class="st2" width="4" height="4.1"/>
				</g>
				<g>
					
						<rect x="62.5" y="-163" transform="matrix(0.5277 -0.8494 0.8494 0.5277 167.1509 -21.1935)" class="st2" width="4" height="4.1"/>
					
						<rect x="77.7" y="-153.5" transform="matrix(0.5277 -0.8494 0.8494 0.5277 166.3055 -3.8632)" class="st2" width="4" height="4.1"/>
					
						<rect x="92.9" y="-144.1" transform="matrix(0.5277 -0.8494 0.8494 0.5277 165.4553 13.5643)" class="st2" width="4" height="4.1"/>
					
						<rect x="108.3" y="-134.6" transform="matrix(0.5277 -0.8494 0.8494 0.5277 164.63 31.0848)" class="st2" width="4" height="4.1"/>
					
						<rect x="124.5" y="-124.4" transform="matrix(0.5277 -0.8494 0.8494 0.5277 163.6596 49.6563)" class="st2" width="4" height="4.1"/>
					
						<rect x="139.6" y="-115" transform="matrix(0.5277 -0.8494 0.8494 0.5277 162.8018 66.9402)" class="st2" width="4" height="4.1"/>
					
						<rect x="155.1" y="-105.4" transform="matrix(0.5277 -0.8494 0.8494 0.5277 161.9842 84.6044)" class="st2" width="4" height="4.1"/>
					
						<rect x="170.3" y="-95.9" transform="matrix(0.5277 -0.8494 0.8494 0.5277 161.134 102.0318)" class="st2" width="4" height="4.1"/>
					
						<rect x="185.6" y="-86.4" transform="matrix(0.5277 -0.8494 0.8494 0.5277 160.2963 119.5058)" class="st2" width="4" height="4.1"/>
					
						<rect x="200.9" y="-77" transform="matrix(0.5277 -0.8494 0.8494 0.5277 159.4586 136.9799)" class="st2" width="4" height="4.1"/>
					
						<rect x="216.2" y="-67.4" transform="matrix(0.5277 -0.8494 0.8494 0.5277 158.5362 154.4957)" class="st2" width="4" height="4.1"/>
					
						<rect x="231.4" y="-57.9" transform="matrix(0.5277 -0.8494 0.8494 0.5277 157.6442 171.8385)" class="st2" width="4" height="4.1"/>
					
						<rect x="245" y="-49.4" transform="matrix(0.5277 -0.8494 0.8494 0.5277 156.8969 187.4249)" class="st2" width="4" height="4.1"/>
				</g>
				<g>
					
						<rect x="91.8" y="-210.1" transform="matrix(0.5277 -0.8494 0.8494 0.5277 221.0337 -18.5374)" class="st2" width="4" height="4.1"/>
					
						<rect x="107" y="-200.7" transform="matrix(0.5277 -0.8494 0.8494 0.5277 220.1882 -1.2069)" class="st2" width="4" height="4.1"/>
					
						<rect x="122.3" y="-191.2" transform="matrix(0.5277 -0.8494 0.8494 0.5277 219.3382 16.2205)" class="st2" width="4" height="4.1"/>
					
						<rect x="137.6" y="-181.7" transform="matrix(0.5277 -0.8494 0.8494 0.5277 218.5128 33.7411)" class="st2" width="4" height="4.1"/>
					
						<rect x="153.8" y="-171.5" transform="matrix(0.5277 -0.8494 0.8494 0.5277 217.5424 52.3125)" class="st2" width="4" height="4.1"/>
					
						<rect x="168.9" y="-162.1" transform="matrix(0.5277 -0.8494 0.8494 0.5277 216.6846 69.5964)" class="st2" width="4" height="4.1"/>
					
						<rect x="184.4" y="-152.5" transform="matrix(0.5277 -0.8494 0.8494 0.5277 215.8669 87.2606)" class="st2" width="4" height="4.1"/>
					
						<rect x="199.6" y="-143.1" transform="matrix(0.5277 -0.8494 0.8494 0.5277 215.0216 104.591)" class="st2" width="4" height="4.1"/>
					
						<rect x="214.9" y="-133.6" transform="matrix(0.5277 -0.8494 0.8494 0.5277 214.1838 122.065)" class="st2" width="4" height="4.1"/>
					
						<rect x="230.1" y="-124.1" transform="matrix(0.5277 -0.8494 0.8494 0.5277 213.249 139.5343)" class="st2" width="4" height="4.1"/>
					
						<rect x="245.5" y="-114.5" transform="matrix(0.5277 -0.8494 0.8494 0.5277 212.4189 157.1519)" class="st2" width="4" height="4.1"/>
					
						<rect x="260.7" y="-105" transform="matrix(0.5277 -0.8494 0.8494 0.5277 211.527 174.4948)" class="st2" width="4" height="4.1"/>
					
						<rect x="274.2" y="-96.6" transform="matrix(0.5277 -0.8494 0.8494 0.5277 210.7843 189.984)" class="st2" width="4" height="4.1"/>
				</g>
				<g>
					
						<rect x="82.1" y="-194.4" transform="matrix(0.5277 -0.8494 0.8494 0.5277 203.1374 -19.4196)" class="st2" width="4" height="4.1"/>
					
						<rect x="97.3" y="-185" transform="matrix(0.5277 -0.8494 0.8494 0.5277 202.2921 -2.0892)" class="st2" width="4" height="4.1"/>
					
						<rect x="112.5" y="-175.5" transform="matrix(0.5277 -0.8494 0.8494 0.5277 201.4419 15.3383)" class="st2" width="4" height="4.1"/>
					
						<rect x="127.8" y="-165.9" transform="matrix(0.5277 -0.8494 0.8494 0.5277 200.5195 32.8541)" class="st2" width="4" height="4.1"/>
					
						<rect x="144" y="-155.8" transform="matrix(0.5277 -0.8494 0.8494 0.5277 199.5491 51.4256)" class="st2" width="4" height="4.1"/>
					
						<rect x="159.1" y="-146.4" transform="matrix(0.5277 -0.8494 0.8494 0.5277 198.6913 68.7095)" class="st2" width="4" height="4.1"/>
					
						<rect x="174.6" y="-136.8" transform="matrix(0.5277 -0.8494 0.8494 0.5277 197.8737 86.3736)" class="st2" width="4" height="4.1"/>
					
						<rect x="189.8" y="-127.4" transform="matrix(0.5277 -0.8494 0.8494 0.5277 197.0282 103.704)" class="st2" width="4" height="4.1"/>
					
						<rect x="205.1" y="-117.9" transform="matrix(0.5277 -0.8494 0.8494 0.5277 196.1905 121.178)" class="st2" width="4" height="4.1"/>
					
						<rect x="220.4" y="-108.4" transform="matrix(0.5277 -0.8494 0.8494 0.5277 195.3528 138.652)" class="st2" width="4" height="4.1"/>
					
						<rect x="235.8" y="-98.8" transform="matrix(0.5277 -0.8494 0.8494 0.5277 194.5227 156.2696)" class="st2" width="4" height="4.1"/>
					
						<rect x="250.9" y="-89.3" transform="matrix(0.5277 -0.8494 0.8494 0.5277 193.5336 173.6078)" class="st2" width="4" height="4.1"/>
					
						<rect x="264.5" y="-80.8" transform="matrix(0.5277 -0.8494 0.8494 0.5277 192.7865 189.1942)" class="st2" width="4" height="4.1"/>
				</g>
			</g>
			<g class="st1">
				<g>
					
						<rect x="192" y="69.9" transform="matrix(0.5277 -0.8494 0.8494 0.5277 30.4859 198.7766)" class="st2" width="4" height="4.1"/>
					
						<rect x="207.2" y="79.4" transform="matrix(0.5277 -0.8494 0.8494 0.5277 29.6357 216.204)" class="st2" width="4" height="4.1"/>
					
						<rect x="222.4" y="88.8" transform="matrix(0.5277 -0.8494 0.8494 0.5277 28.7903 233.5344)" class="st2" width="4" height="4.1"/>
					
						<rect x="237.8" y="98.4" transform="matrix(0.5277 -0.8494 0.8494 0.5277 27.9602 251.152)" class="st2" width="4" height="4.1"/>
					
						<rect x="254" y="108.5" transform="matrix(0.5277 -0.8494 0.8494 0.5277 26.9946 269.6264)" class="st2" width="4" height="4.1"/>
					
						<rect x="269.1" y="117.9" transform="matrix(0.5277 -0.8494 0.8494 0.5277 26.1368 286.9103)" class="st2" width="4" height="4.1"/>
					
						<rect x="284.6" y="127.5" transform="matrix(0.5277 -0.8494 0.8494 0.5277 25.3191 304.5745)" class="st2" width="4" height="4.1"/>
					
						<rect x="299.8" y="136.9" transform="matrix(0.5277 -0.8494 0.8494 0.5277 24.469 322.0019)" class="st2" width="4" height="4.1"/>
					
						<rect x="315.1" y="146.4" transform="matrix(0.5277 -0.8494 0.8494 0.5277 23.6312 339.476)" class="st2" width="4" height="4.1"/>
					
						<rect x="330.3" y="156" transform="matrix(0.5277 -0.8494 0.8494 0.5277 22.6964 356.9453)" class="st2" width="4" height="4.1"/>
					
						<rect x="345.7" y="165.5" transform="matrix(0.5277 -0.8494 0.8494 0.5277 21.8711 374.4659)" class="st2" width="4" height="4.1"/>
					
						<rect x="360.8" y="175" transform="matrix(0.5277 -0.8494 0.8494 0.5277 20.9791 391.8086)" class="st2" width="4" height="4.1"/>
					
						<rect x="374.5" y="183.5" transform="matrix(0.5277 -0.8494 0.8494 0.5277 20.2319 407.3951)" class="st2" width="4" height="4.1"/>
				</g>
				<g>
					
						<rect x="182.3" y="85.6" transform="matrix(0.5277 -0.8494 0.8494 0.5277 12.5896 197.8943)" class="st2" width="4" height="4.1"/>
					
						<rect x="197.5" y="95.1" transform="matrix(0.5277 -0.8494 0.8494 0.5277 11.7395 215.3217)" class="st2" width="4" height="4.1"/>
					
						<rect x="212.7" y="104.5" transform="matrix(0.5277 -0.8494 0.8494 0.5277 10.894 232.6521)" class="st2" width="4" height="4.1"/>
					
						<rect x="228" y="114.1" transform="matrix(0.5277 -0.8494 0.8494 0.5277 9.9669 250.265)" class="st2" width="4" height="4.1"/>
					
						<rect x="244.2" y="124.2" transform="matrix(0.5277 -0.8494 0.8494 0.5277 9.0013 268.7394)" class="st2" width="4" height="4.1"/>
					
						<rect x="259.3" y="133.6" transform="matrix(0.5277 -0.8494 0.8494 0.5277 8.1434 286.0233)" class="st2" width="4" height="4.1"/>
					
						<rect x="274.8" y="143.2" transform="matrix(0.5277 -0.8494 0.8494 0.5277 7.3258 303.6875)" class="st2" width="4" height="4.1"/>
					
						<rect x="290" y="152.7" transform="matrix(0.5277 -0.8494 0.8494 0.5277 6.4757 321.115)" class="st2" width="4" height="4.1"/>
					
						<rect x="305.3" y="162.2" transform="matrix(0.5277 -0.8494 0.8494 0.5277 5.6379 338.589)" class="st2" width="4" height="4.1"/>
					
						<rect x="320.6" y="171.7" transform="matrix(0.5277 -0.8494 0.8494 0.5277 4.8002 356.0631)" class="st2" width="4" height="4.1"/>
					
						<rect x="335.9" y="181.2" transform="matrix(0.5277 -0.8494 0.8494 0.5277 3.9748 373.5836)" class="st2" width="4" height="4.1"/>
					
						<rect x="351.1" y="190.8" transform="matrix(0.5277 -0.8494 0.8494 0.5277 2.9811 391.0187)" class="st2" width="4" height="4.1"/>
					
						<rect x="364.7" y="199.2" transform="matrix(0.5277 -0.8494 0.8494 0.5277 2.2386 406.5081)" class="st2" width="4" height="4.1"/>
				</g>
				<g>
					
						<rect x="173.6" y="99.6" transform="matrix(0.5277 -0.8494 0.8494 0.5277 -3.4062 197.1283)" class="st2" width="4" height="4.1"/>
					
						<rect x="188.8" y="109.1" transform="matrix(0.5277 -0.8494 0.8494 0.5277 -4.2563 214.5559)" class="st2" width="4" height="4.1"/>
					
						<rect x="204" y="118.5" transform="matrix(0.5277 -0.8494 0.8494 0.5277 -5.1017 231.8862)" class="st2" width="4" height="4.1"/>
					
						<rect x="219.4" y="128" transform="matrix(0.5277 -0.8494 0.8494 0.5277 -5.9317 249.5039)" class="st2" width="4" height="4.1"/>
					
						<rect x="235.5" y="138.2" transform="matrix(0.5277 -0.8494 0.8494 0.5277 -6.9945 267.9736)" class="st2" width="4" height="4.1"/>
					
						<rect x="250.6" y="147.6" transform="matrix(0.5277 -0.8494 0.8494 0.5277 -7.8523 285.2575)" class="st2" width="4" height="4.1"/>
					
						<rect x="266.1" y="157.2" transform="matrix(0.5277 -0.8494 0.8494 0.5277 -8.67 302.9217)" class="st2" width="4" height="4.1"/>
					
						<rect x="281.3" y="166.7" transform="matrix(0.5277 -0.8494 0.8494 0.5277 -9.5202 320.3492)" class="st2" width="4" height="4.1"/>
					
						<rect x="296.6" y="176.2" transform="matrix(0.5277 -0.8494 0.8494 0.5277 -10.3579 337.8231)" class="st2" width="4" height="4.1"/>
					
						<rect x="311.9" y="185.7" transform="matrix(0.5277 -0.8494 0.8494 0.5277 -11.1956 355.2971)" class="st2" width="4" height="4.1"/>
					
						<rect x="327.3" y="195.2" transform="matrix(0.5277 -0.8494 0.8494 0.5277 -12.0209 372.8177)" class="st2" width="4" height="4.1"/>
					
						<rect x="342.3" y="204.7" transform="matrix(0.5277 -0.8494 0.8494 0.5277 -13.0099 390.1558)" class="st2" width="4" height="4.1"/>
					
						<rect x="356" y="213.2" transform="matrix(0.5277 -0.8494 0.8494 0.5277 -13.7572 405.7422)" class="st2" width="4" height="4.1"/>
				</g>
				<g>
					
						<rect x="211.6" y="38.4" transform="matrix(0.5277 -0.8494 0.8494 0.5277 66.4724 200.5505)" class="st2" width="4" height="4.1"/>
					
						<rect x="226.7" y="47.9" transform="matrix(0.5277 -0.8494 0.8494 0.5277 65.627 217.8809)" class="st2" width="4" height="4.1"/>
					
						<rect x="242" y="57.4" transform="matrix(0.5277 -0.8494 0.8494 0.5277 64.7769 235.3083)" class="st2" width="4" height="4.1"/>
					
						<rect x="257.3" y="66.9" transform="matrix(0.5277 -0.8494 0.8494 0.5277 63.8544 252.8242)" class="st2" width="4" height="4.1"/>
					
						<rect x="273.5" y="77.1" transform="matrix(0.5277 -0.8494 0.8494 0.5277 62.8841 271.3957)" class="st2" width="4" height="4.1"/>
					
						<rect x="288.6" y="86.5" transform="matrix(0.5277 -0.8494 0.8494 0.5277 62.0263 288.6796)" class="st2" width="4" height="4.1"/>
					
						<rect x="304.1" y="96.1" transform="matrix(0.5277 -0.8494 0.8494 0.5277 61.2085 306.3437)" class="st2" width="4" height="4.1"/>
					
						<rect x="319.3" y="105.5" transform="matrix(0.5277 -0.8494 0.8494 0.5277 60.3632 323.6741)" class="st2" width="4" height="4.1"/>
					
						<rect x="334.5" y="115" transform="matrix(0.5277 -0.8494 0.8494 0.5277 59.5255 341.1481)" class="st2" width="4" height="4.1"/>
					
						<rect x="349.8" y="124.5" transform="matrix(0.5277 -0.8494 0.8494 0.5277 58.6877 358.6222)" class="st2" width="4" height="4.1"/>
					
						<rect x="365.2" y="134.1" transform="matrix(0.5277 -0.8494 0.8494 0.5277 57.7605 376.2351)" class="st2" width="4" height="4.1"/>
					
						<rect x="380.4" y="143.6" transform="matrix(0.5277 -0.8494 0.8494 0.5277 56.8686 393.5779)" class="st2" width="4" height="4.1"/>
					
						<rect x="394" y="152.1" transform="matrix(0.5277 -0.8494 0.8494 0.5277 56.1213 409.1642)" class="st2" width="4" height="4.1"/>
				</g>
				<g>
					
						<rect x="201.8" y="54.2" transform="matrix(0.5277 -0.8494 0.8494 0.5277 48.4791 199.6635)" class="st2" width="4" height="4.1"/>
					
						<rect x="217" y="63.6" transform="matrix(0.5277 -0.8494 0.8494 0.5277 47.6337 216.9939)" class="st2" width="4" height="4.1"/>
					
						<rect x="232.2" y="73.1" transform="matrix(0.5277 -0.8494 0.8494 0.5277 46.7835 234.4214)" class="st2" width="4" height="4.1"/>
					
						<rect x="247.5" y="82.6" transform="matrix(0.5277 -0.8494 0.8494 0.5277 45.9582 251.9419)" class="st2" width="4" height="4.1"/>
					
						<rect x="263.7" y="92.8" transform="matrix(0.5277 -0.8494 0.8494 0.5277 44.8908 270.5087)" class="st2" width="4" height="4.1"/>
					
						<rect x="278.9" y="102.2" transform="matrix(0.5277 -0.8494 0.8494 0.5277 44.13 287.7973)" class="st2" width="4" height="4.1"/>
					
						<rect x="294.3" y="111.8" transform="matrix(0.5277 -0.8494 0.8494 0.5277 43.2153 305.4568)" class="st2" width="4" height="4.1"/>
					
						<rect x="309.5" y="121.2" transform="matrix(0.5277 -0.8494 0.8494 0.5277 42.3699 322.7872)" class="st2" width="4" height="4.1"/>
					
						<rect x="324.8" y="130.7" transform="matrix(0.5277 -0.8494 0.8494 0.5277 41.5321 340.2611)" class="st2" width="4" height="4.1"/>
					
						<rect x="340" y="140.2" transform="matrix(0.5277 -0.8494 0.8494 0.5277 40.6944 357.7351)" class="st2" width="4" height="4.1"/>
					
						<rect x="355.5" y="149.8" transform="matrix(0.5277 -0.8494 0.8494 0.5277 39.8644 375.3528)" class="st2" width="4" height="4.1"/>
					
						<rect x="370.6" y="159.3" transform="matrix(0.5277 -0.8494 0.8494 0.5277 38.8753 392.6909)" class="st2" width="4" height="4.1"/>
					
						<rect x="384.2" y="167.8" transform="matrix(0.5277 -0.8494 0.8494 0.5277 38.1281 408.2773)" class="st2" width="4" height="4.1"/>
				</g>
				<g>
					
						<rect x="231.1" y="7.1" transform="matrix(0.5277 -0.8494 0.8494 0.5277 102.3619 202.3197)" class="st2" width="4" height="4.1"/>
					
						<rect x="246.3" y="16.5" transform="matrix(0.5277 -0.8494 0.8494 0.5277 101.5165 219.6501)" class="st2" width="4" height="4.1"/>
					
						<rect x="261.4" y="25.9" transform="matrix(0.5277 -0.8494 0.8494 0.5277 100.6711 236.9805)" class="st2" width="4" height="4.1"/>
					
						<rect x="276.9" y="35.5" transform="matrix(0.5277 -0.8494 0.8494 0.5277 99.841 254.5982)" class="st2" width="4" height="4.1"/>
					
						<rect x="293" y="45.7" transform="matrix(0.5277 -0.8494 0.8494 0.5277 98.7736 273.1649)" class="st2" width="4" height="4.1"/>
					
						<rect x="308.2" y="55" transform="matrix(0.5277 -0.8494 0.8494 0.5277 98.0128 290.4535)" class="st2" width="4" height="4.1"/>
					
						<rect x="323.6" y="64.7" transform="matrix(0.5277 -0.8494 0.8494 0.5277 97.0981 308.1129)" class="st2" width="4" height="4.1"/>
					
						<rect x="338.8" y="74.1" transform="matrix(0.5277 -0.8494 0.8494 0.5277 96.2527 325.4434)" class="st2" width="4" height="4.1"/>
					
						<rect x="354.1" y="83.6" transform="matrix(0.5277 -0.8494 0.8494 0.5277 95.415 342.9174)" class="st2" width="4" height="4.1"/>
					
						<rect x="369.4" y="93.1" transform="matrix(0.5277 -0.8494 0.8494 0.5277 94.5771 360.3914)" class="st2" width="4" height="4.1"/>
					
						<rect x="384.8" y="102.7" transform="matrix(0.5277 -0.8494 0.8494 0.5277 93.7471 378.0091)" class="st2" width="4" height="4.1"/>
					
						<rect x="399.9" y="112.2" transform="matrix(0.5277 -0.8494 0.8494 0.5277 92.7581 395.3471)" class="st2" width="4" height="4.1"/>
					
						<rect x="413.5" y="120.6" transform="matrix(0.5277 -0.8494 0.8494 0.5277 92.0155 410.8364)" class="st2" width="4" height="4.1"/>
				</g>
				<g>
					
						<rect x="221.3" y="22.8" transform="matrix(0.5277 -0.8494 0.8494 0.5277 84.3686 201.4328)" class="st2" width="4" height="4.1"/>
					
						<rect x="236.5" y="32.2" transform="matrix(0.5277 -0.8494 0.8494 0.5277 83.5232 218.7631)" class="st2" width="4" height="4.1"/>
					
						<rect x="251.7" y="41.7" transform="matrix(0.5277 -0.8494 0.8494 0.5277 82.6731 236.1906)" class="st2" width="4" height="4.1"/>
					
						<rect x="267.1" y="51.2" transform="matrix(0.5277 -0.8494 0.8494 0.5277 81.8477 253.7112)" class="st2" width="4" height="4.1"/>
					
						<rect x="283.3" y="61.4" transform="matrix(0.5277 -0.8494 0.8494 0.5277 80.8773 272.2827)" class="st2" width="4" height="4.1"/>
					
						<rect x="298.4" y="70.8" transform="matrix(0.5277 -0.8494 0.8494 0.5277 80.0195 289.5665)" class="st2" width="4" height="4.1"/>
					
						<rect x="313.8" y="80.4" transform="matrix(0.5277 -0.8494 0.8494 0.5277 79.1048 307.226)" class="st2" width="4" height="4.1"/>
					
						<rect x="329" y="89.8" transform="matrix(0.5277 -0.8494 0.8494 0.5277 78.3564 324.5612)" class="st2" width="4" height="4.1"/>
					
						<rect x="344.3" y="99.3" transform="matrix(0.5277 -0.8494 0.8494 0.5277 77.4216 342.0304)" class="st2" width="4" height="4.1"/>
					
						<rect x="359.6" y="108.8" transform="matrix(0.5277 -0.8494 0.8494 0.5277 76.5839 359.5044)" class="st2" width="4" height="4.1"/>
					
						<rect x="375" y="118.4" transform="matrix(0.5277 -0.8494 0.8494 0.5277 75.7539 377.122)" class="st2" width="4" height="4.1"/>
					
						<rect x="390.2" y="127.9" transform="matrix(0.5277 -0.8494 0.8494 0.5277 74.8619 394.4648)" class="st2" width="4" height="4.1"/>
					
						<rect x="403.7" y="136.4" transform="matrix(0.5277 -0.8494 0.8494 0.5277 74.0223 409.9494)" class="st2" width="4" height="4.1"/>
				</g>
				<g>
					
						<rect x="250.6" y="-24.4" transform="matrix(0.5277 -0.8494 0.8494 0.5277 138.2561 203.9919)" class="st2" width="4" height="4.1"/>
					
						<rect x="265.8" y="-14.9" transform="matrix(0.5277 -0.8494 0.8494 0.5277 137.406 221.4193)" class="st2" width="4" height="4.1"/>
					
						<rect x="281" y="-5.5" transform="matrix(0.5277 -0.8494 0.8494 0.5277 136.5605 238.7497)" class="st2" width="4" height="4.1"/>
					
						<rect x="296.4" y="4.1" transform="matrix(0.5277 -0.8494 0.8494 0.5277 135.7304 256.3674)" class="st2" width="4" height="4.1"/>
					
						<rect x="312.5" y="14.2" transform="matrix(0.5277 -0.8494 0.8494 0.5277 134.7648 274.8419)" class="st2" width="4" height="4.1"/>
					
						<rect x="327.7" y="23.6" transform="matrix(0.5277 -0.8494 0.8494 0.5277 133.907 292.1257)" class="st2" width="4" height="4.1"/>
					
						<rect x="343.1" y="33.2" transform="matrix(0.5277 -0.8494 0.8494 0.5277 132.9923 309.7851)" class="st2" width="4" height="4.1"/>
					
						<rect x="358.3" y="42.7" transform="matrix(0.5277 -0.8494 0.8494 0.5277 132.1421 327.2126)" class="st2" width="4" height="4.1"/>
					
						<rect x="373.6" y="52.2" transform="matrix(0.5277 -0.8494 0.8494 0.5277 131.3044 344.6866)" class="st2" width="4" height="4.1"/>
					
						<rect x="388.9" y="61.7" transform="matrix(0.5277 -0.8494 0.8494 0.5277 130.4667 362.1606)" class="st2" width="4" height="4.1"/>
					
						<rect x="404.3" y="71.2" transform="matrix(0.5277 -0.8494 0.8494 0.5277 129.6414 379.6812)" class="st2" width="4" height="4.1"/>
					
						<rect x="419.4" y="80.8" transform="matrix(0.5277 -0.8494 0.8494 0.5277 128.6475 397.1163)" class="st2" width="4" height="4.1"/>
					
						<rect x="433" y="89.2" transform="matrix(0.5277 -0.8494 0.8494 0.5277 127.9051 412.6057)" class="st2" width="4" height="4.1"/>
				</g>
				<g>
					
						<rect x="240.8" y="-8.6" transform="matrix(0.5277 -0.8494 0.8494 0.5277 120.2628 203.1049)" class="st2" width="4" height="4.1"/>
					
						<rect x="256" y="0.8" transform="matrix(0.5277 -0.8494 0.8494 0.5277 119.4127 220.5324)" class="st2" width="4" height="4.1"/>
					
						<rect x="271.2" y="10.3" transform="matrix(0.5277 -0.8494 0.8494 0.5277 118.5673 237.8628)" class="st2" width="4" height="4.1"/>
					
						<rect x="286.6" y="19.8" transform="matrix(0.5277 -0.8494 0.8494 0.5277 117.7373 255.4804)" class="st2" width="4" height="4.1"/>
					
						<rect x="302.7" y="29.9" transform="matrix(0.5277 -0.8494 0.8494 0.5277 116.7716 273.9548)" class="st2" width="4" height="4.1"/>
					
						<rect x="317.9" y="39.3" transform="matrix(0.5277 -0.8494 0.8494 0.5277 115.9137 291.2386)" class="st2" width="4" height="4.1"/>
					
						<rect x="333.3" y="48.9" transform="matrix(0.5277 -0.8494 0.8494 0.5277 115.096 308.9029)" class="st2" width="4" height="4.1"/>
					
						<rect x="348.6" y="58.4" transform="matrix(0.5277 -0.8494 0.8494 0.5277 114.2459 326.3303)" class="st2" width="4" height="4.1"/>
					
						<rect x="363.9" y="67.9" transform="matrix(0.5277 -0.8494 0.8494 0.5277 113.4082 343.8044)" class="st2" width="4" height="4.1"/>
					
						<rect x="379.2" y="77.4" transform="matrix(0.5277 -0.8494 0.8494 0.5277 112.5705 361.2784)" class="st2" width="4" height="4.1"/>
					
						<rect x="394.5" y="86.9" transform="matrix(0.5277 -0.8494 0.8494 0.5277 111.6481 378.7943)" class="st2" width="4" height="4.1"/>
					
						<rect x="409.7" y="96.5" transform="matrix(0.5277 -0.8494 0.8494 0.5277 110.7514 396.234)" class="st2" width="4" height="4.1"/>
					
						<rect x="423.3" y="104.9" transform="matrix(0.5277 -0.8494 0.8494 0.5277 110.0088 411.7234)" class="st2" width="4" height="4.1"/>
				</g>
				<g>
					
						<rect x="270.1" y="-55.8" transform="matrix(0.5277 -0.8494 0.8494 0.5277 174.1455 205.7611)" class="st2" width="4" height="4.1"/>
					
						<rect x="285.3" y="-46.3" transform="matrix(0.5277 -0.8494 0.8494 0.5277 173.3002 223.0915)" class="st2" width="4" height="4.1"/>
					
						<rect x="300.5" y="-36.9" transform="matrix(0.5277 -0.8494 0.8494 0.5277 172.4501 240.519)" class="st2" width="4" height="4.1"/>
					
						<rect x="315.9" y="-27.4" transform="matrix(0.5277 -0.8494 0.8494 0.5277 171.6246 258.0396)" class="st2" width="4" height="4.1"/>
					
						<rect x="332.1" y="-17.2" transform="matrix(0.5277 -0.8494 0.8494 0.5277 170.6543 276.611)" class="st2" width="4" height="4.1"/>
					
						<rect x="347.2" y="-7.8" transform="matrix(0.5277 -0.8494 0.8494 0.5277 169.7966 293.8949)" class="st2" width="4" height="4.1"/>
					
						<rect x="362.7" y="1.8" transform="matrix(0.5277 -0.8494 0.8494 0.5277 168.9789 311.5591)" class="st2" width="4" height="4.1"/>
					
						<rect x="377.9" y="11.3" transform="matrix(0.5277 -0.8494 0.8494 0.5277 168.1287 328.9866)" class="st2" width="4" height="4.1"/>
					
						<rect x="393.2" y="20.7" transform="matrix(0.5277 -0.8494 0.8494 0.5277 167.291 346.4605)" class="st2" width="4" height="4.1"/>
					
						<rect x="408.4" y="30.3" transform="matrix(0.5277 -0.8494 0.8494 0.5277 166.3562 363.9298)" class="st2" width="4" height="4.1"/>
					
						<rect x="423.8" y="39.8" transform="matrix(0.5277 -0.8494 0.8494 0.5277 165.5309 381.4505)" class="st2" width="4" height="4.1"/>
					
						<rect x="438.9" y="49.3" transform="matrix(0.5277 -0.8494 0.8494 0.5277 164.6389 398.7932)" class="st2" width="4" height="4.1"/>
					
						<rect x="452.6" y="57.8" transform="matrix(0.5277 -0.8494 0.8494 0.5277 163.8916 414.3796)" class="st2" width="4" height="4.1"/>
				</g>
				<g>
					
						<rect x="260.4" y="-40.1" transform="matrix(0.5277 -0.8494 0.8494 0.5277 156.2494 204.8789)" class="st2" width="4" height="4.1"/>
					
						<rect x="275.6" y="-30.6" transform="matrix(0.5277 -0.8494 0.8494 0.5277 155.3992 222.3064)" class="st2" width="4" height="4.1"/>
					
						<rect x="290.8" y="-21.2" transform="matrix(0.5277 -0.8494 0.8494 0.5277 154.5538 239.6367)" class="st2" width="4" height="4.1"/>
					
						<rect x="306.1" y="-11.6" transform="matrix(0.5277 -0.8494 0.8494 0.5277 153.6267 257.2496)" class="st2" width="4" height="4.1"/>
					
						<rect x="322.3" y="-1.5" transform="matrix(0.5277 -0.8494 0.8494 0.5277 152.661 275.724)" class="st2" width="4" height="4.1"/>
					
						<rect x="337.4" y="7.9" transform="matrix(0.5277 -0.8494 0.8494 0.5277 151.8032 293.0079)" class="st2" width="4" height="4.1"/>
					
						<rect x="352.9" y="17.5" transform="matrix(0.5277 -0.8494 0.8494 0.5277 150.9855 310.6721)" class="st2" width="4" height="4.1"/>
					
						<rect x="368.1" y="27" transform="matrix(0.5277 -0.8494 0.8494 0.5277 150.1355 328.0995)" class="st2" width="4" height="4.1"/>
					
						<rect x="383.4" y="36.5" transform="matrix(0.5277 -0.8494 0.8494 0.5277 149.2977 345.5735)" class="st2" width="4" height="4.1"/>
					
						<rect x="398.7" y="46" transform="matrix(0.5277 -0.8494 0.8494 0.5277 148.46 363.0476)" class="st2" width="4" height="4.1"/>
					
						<rect x="414" y="55.5" transform="matrix(0.5277 -0.8494 0.8494 0.5277 147.6346 380.5682)" class="st2" width="4" height="4.1"/>
					
						<rect x="429.1" y="65" transform="matrix(0.5277 -0.8494 0.8494 0.5277 146.6456 397.9062)" class="st2" width="4" height="4.1"/>
					
						<rect x="442.8" y="73.5" transform="matrix(0.5277 -0.8494 0.8494 0.5277 145.8983 413.4926)" class="st2" width="4" height="4.1"/>
				</g>
				<g>
					
						<rect x="289.7" y="-87.2" transform="matrix(0.5277 -0.8494 0.8494 0.5277 210.1322 207.535)" class="st2" width="4" height="4.1"/>
					
						<rect x="304.9" y="-77.8" transform="matrix(0.5277 -0.8494 0.8494 0.5277 209.2867 224.8654)" class="st2" width="4" height="4.1"/>
					
						<rect x="320.1" y="-68.3" transform="matrix(0.5277 -0.8494 0.8494 0.5277 208.4366 242.2929)" class="st2" width="4" height="4.1"/>
					
						<rect x="335.4" y="-58.8" transform="matrix(0.5277 -0.8494 0.8494 0.5277 207.5142 259.8088)" class="st2" width="4" height="4.1"/>
					
						<rect x="351.6" y="-48.6" transform="matrix(0.5277 -0.8494 0.8494 0.5277 206.5438 278.3802)" class="st2" width="4" height="4.1"/>
					
						<rect x="366.7" y="-39.2" transform="matrix(0.5277 -0.8494 0.8494 0.5277 205.686 295.6641)" class="st2" width="4" height="4.1"/>
					
						<rect x="382.2" y="-29.6" transform="matrix(0.5277 -0.8494 0.8494 0.5277 204.8683 313.3283)" class="st2" width="4" height="4.1"/>
					
						<rect x="397.4" y="-20.2" transform="matrix(0.5277 -0.8494 0.8494 0.5277 204.0229 330.6588)" class="st2" width="4" height="4.1"/>
					
						<rect x="412.7" y="-10.7" transform="matrix(0.5277 -0.8494 0.8494 0.5277 203.1852 348.1328)" class="st2" width="4" height="4.1"/>
					
						<rect x="428" y="-1.2" transform="matrix(0.5277 -0.8494 0.8494 0.5277 202.3474 365.6068)" class="st2" width="4" height="4.1"/>
					
						<rect x="443.3" y="8.4" transform="matrix(0.5277 -0.8494 0.8494 0.5277 201.4203 383.2197)" class="st2" width="4" height="4.1"/>
					
						<rect x="458.5" y="17.9" transform="matrix(0.5277 -0.8494 0.8494 0.5277 200.5284 400.5625)" class="st2" width="4" height="4.1"/>
					
						<rect x="472" y="26.3" transform="matrix(0.5277 -0.8494 0.8494 0.5277 199.7858 416.0517)" class="st2" width="4" height="4.1"/>
				</g>
				<g>
					
						<rect x="279.9" y="-71.5" transform="matrix(0.5277 -0.8494 0.8494 0.5277 192.1388 206.6481)" class="st2" width="4" height="4.1"/>
					
						<rect x="295.1" y="-62.1" transform="matrix(0.5277 -0.8494 0.8494 0.5277 191.2935 223.9785)" class="st2" width="4" height="4.1"/>
					
						<rect x="310.3" y="-52.6" transform="matrix(0.5277 -0.8494 0.8494 0.5277 190.4433 241.406)" class="st2" width="4" height="4.1"/>
					
						<rect x="325.7" y="-43.1" transform="matrix(0.5277 -0.8494 0.8494 0.5277 189.618 258.9265)" class="st2" width="4" height="4.1"/>
					
						<rect x="341.8" y="-32.9" transform="matrix(0.5277 -0.8494 0.8494 0.5277 188.5505 277.4933)" class="st2" width="4" height="4.1"/>
					
						<rect x="357" y="-23.5" transform="matrix(0.5277 -0.8494 0.8494 0.5277 187.7898 294.7819)" class="st2" width="4" height="4.1"/>
					
						<rect x="372.4" y="-13.9" transform="matrix(0.5277 -0.8494 0.8494 0.5277 186.8751 312.4414)" class="st2" width="4" height="4.1"/>
					
						<rect x="387.6" y="-4.5" transform="matrix(0.5277 -0.8494 0.8494 0.5277 186.0297 329.7717)" class="st2" width="4" height="4.1"/>
					
						<rect x="402.9" y="5" transform="matrix(0.5277 -0.8494 0.8494 0.5277 185.1919 347.2458)" class="st2" width="4" height="4.1"/>
					
						<rect x="418.2" y="14.5" transform="matrix(0.5277 -0.8494 0.8494 0.5277 184.3541 364.7198)" class="st2" width="4" height="4.1"/>
					
						<rect x="433.6" y="24.1" transform="matrix(0.5277 -0.8494 0.8494 0.5277 183.5241 382.3374)" class="st2" width="4" height="4.1"/>
					
						<rect x="448.7" y="33.6" transform="matrix(0.5277 -0.8494 0.8494 0.5277 182.5351 399.6755)" class="st2" width="4" height="4.1"/>
					
						<rect x="462.3" y="42.1" transform="matrix(0.5277 -0.8494 0.8494 0.5277 181.7878 415.2619)" class="st2" width="4" height="4.1"/>
				</g>
			</g>
			<g class="st1">
				<g>
					
						<rect x="-131.9" y="150" transform="matrix(0.5277 -0.8494 0.8494 0.5277 -190.4805 -38.5452)" class="st2" width="4" height="4.1"/>
					
						<rect x="-116.7" y="159.4" transform="matrix(0.5277 -0.8494 0.8494 0.5277 -191.3259 -21.2149)" class="st2" width="4" height="4.1"/>
					
						<rect x="-101.5" y="168.9" transform="matrix(0.5277 -0.8494 0.8494 0.5277 -192.1761 -3.7874)" class="st2" width="4" height="4.1"/>
					
						<rect x="-86.2" y="178.4" transform="matrix(0.5277 -0.8494 0.8494 0.5277 -193.0014 13.7331)" class="st2" width="4" height="4.1"/>
					
						<rect x="-70" y="188.6" transform="matrix(0.5277 -0.8494 0.8494 0.5277 -194.0688 32.2999)" class="st2" width="4" height="4.1"/>
					
						<rect x="-54.9" y="198" transform="matrix(0.5277 -0.8494 0.8494 0.5277 -194.9266 49.5838)" class="st2" width="4" height="4.1"/>
					
						<rect x="-39.4" y="207.6" transform="matrix(0.5277 -0.8494 0.8494 0.5277 -195.7442 67.248)" class="st2" width="4" height="4.1"/>
					
						<rect x="-24.2" y="217" transform="matrix(0.5277 -0.8494 0.8494 0.5277 -196.5897 84.5784)" class="st2" width="4" height="4.1"/>
					
						<rect x="-8.9" y="226.5" transform="matrix(0.5277 -0.8494 0.8494 0.5277 -197.4274 102.0524)" class="st2" width="4" height="4.1"/>
					
						<rect x="6.4" y="236" transform="matrix(0.5277 -0.8494 0.8494 0.5277 -198.2651 119.5264)" class="st2" width="4" height="4.1"/>
					
						<rect x="21.8" y="245.6" transform="matrix(0.5277 -0.8494 0.8494 0.5277 -199.0952 137.1441)" class="st2" width="4" height="4.1"/>
					
						<rect x="36.9" y="255.1" transform="matrix(0.5277 -0.8494 0.8494 0.5277 -200.0843 154.4821)" class="st2" width="4" height="4.1"/>
					
						<rect x="50.5" y="263.6" transform="matrix(0.5277 -0.8494 0.8494 0.5277 -200.8315 170.0685)" class="st2" width="4" height="4.1"/>
				</g>
				<g>
					
						<rect x="-141.7" y="165.7" transform="matrix(0.5277 -0.8494 0.8494 0.5277 -208.4737 -39.4322)" class="st2" width="4" height="4.1"/>
					
						<rect x="-126.5" y="175.2" transform="matrix(0.5277 -0.8494 0.8494 0.5277 -209.3239 -22.0048)" class="st2" width="4" height="4.1"/>
					
						<rect x="-111.3" y="184.6" transform="matrix(0.5277 -0.8494 0.8494 0.5277 -210.1693 -4.6744)" class="st2" width="4" height="4.1"/>
					
						<rect x="-95.9" y="194.2" transform="matrix(0.5277 -0.8494 0.8494 0.5277 -210.9993 12.9432)" class="st2" width="4" height="4.1"/>
					
						<rect x="-79.7" y="204.3" transform="matrix(0.5277 -0.8494 0.8494 0.5277 -211.965 31.4177)" class="st2" width="4" height="4.1"/>
					
						<rect x="-64.6" y="213.7" transform="matrix(0.5277 -0.8494 0.8494 0.5277 -212.8228 48.7015)" class="st2" width="4" height="4.1"/>
					
						<rect x="-49.2" y="223.3" transform="matrix(0.5277 -0.8494 0.8494 0.5277 -213.7376 66.361)" class="st2" width="4" height="4.1"/>
					
						<rect x="-33.9" y="232.8" transform="matrix(0.5277 -0.8494 0.8494 0.5277 -214.5877 83.7884)" class="st2" width="4" height="4.1"/>
					
						<rect x="-18.7" y="242.3" transform="matrix(0.5277 -0.8494 0.8494 0.5277 -215.4255 101.2625)" class="st2" width="4" height="4.1"/>
					
						<rect x="-3.4" y="251.8" transform="matrix(0.5277 -0.8494 0.8494 0.5277 -216.2631 118.7365)" class="st2" width="4" height="4.1"/>
					
						<rect x="12" y="261.3" transform="matrix(0.5277 -0.8494 0.8494 0.5277 -217.0885 136.2571)" class="st2" width="4" height="4.1"/>
					
						<rect x="27.1" y="270.8" transform="matrix(0.5277 -0.8494 0.8494 0.5277 -217.9805 153.5998)" class="st2" width="4" height="4.1"/>
					
						<rect x="40.7" y="279.3" transform="matrix(0.5277 -0.8494 0.8494 0.5277 -218.8248 169.1815)" class="st2" width="4" height="4.1"/>
				</g>
				<g>
					
						<rect x="-150.4" y="179.7" transform="matrix(0.5277 -0.8494 0.8494 0.5277 -224.4696 -40.1981)" class="st2" width="4" height="4.1"/>
					
						<rect x="-135.2" y="189.1" transform="matrix(0.5277 -0.8494 0.8494 0.5277 -225.3149 -22.8677)" class="st2" width="4" height="4.1"/>
					
						<rect x="-120" y="198.6" transform="matrix(0.5277 -0.8494 0.8494 0.5277 -226.1651 -5.4403)" class="st2" width="4" height="4.1"/>
					
						<rect x="-104.6" y="208.1" transform="matrix(0.5277 -0.8494 0.8494 0.5277 -226.9904 12.0803)" class="st2" width="4" height="4.1"/>
					
						<rect x="-88.4" y="218.3" transform="matrix(0.5277 -0.8494 0.8494 0.5277 -227.9608 30.6518)" class="st2" width="4" height="4.1"/>
					
						<rect x="-73.3" y="227.7" transform="matrix(0.5277 -0.8494 0.8494 0.5277 -228.8186 47.9357)" class="st2" width="4" height="4.1"/>
					
						<rect x="-57.8" y="237.3" transform="matrix(0.5277 -0.8494 0.8494 0.5277 -229.6362 65.5998)" class="st2" width="4" height="4.1"/>
					
						<rect x="-42.6" y="246.7" transform="matrix(0.5277 -0.8494 0.8494 0.5277 -230.4864 83.0273)" class="st2" width="4" height="4.1"/>
					
						<rect x="-27.3" y="256.3" transform="matrix(0.5277 -0.8494 0.8494 0.5277 -231.4212 100.4966)" class="st2" width="4" height="4.1"/>
					
						<rect x="-12" y="265.8" transform="matrix(0.5277 -0.8494 0.8494 0.5277 -232.2589 117.9706)" class="st2" width="4" height="4.1"/>
					
						<rect x="3.3" y="275.3" transform="matrix(0.5277 -0.8494 0.8494 0.5277 -233.0842 135.4912)" class="st2" width="4" height="4.1"/>
					
						<rect x="18.5" y="284.8" transform="matrix(0.5277 -0.8494 0.8494 0.5277 -233.9763 152.834)" class="st2" width="4" height="4.1"/>
					
						<rect x="32.1" y="293.2" transform="matrix(0.5277 -0.8494 0.8494 0.5277 -234.7235 168.4204)" class="st2" width="4" height="4.1"/>
				</g>
				<g>
					
						<rect x="-112.4" y="118.6" transform="matrix(0.5277 -0.8494 0.8494 0.5277 -154.591 -36.776)" class="st2" width="4" height="4.1"/>
					
						<rect x="-97.2" y="128" transform="matrix(0.5277 -0.8494 0.8494 0.5277 -155.4364 -19.4456)" class="st2" width="4" height="4.1"/>
					
						<rect x="-82" y="137.5" transform="matrix(0.5277 -0.8494 0.8494 0.5277 -156.2866 -2.0181)" class="st2" width="4" height="4.1"/>
					
						<rect x="-66.6" y="147" transform="matrix(0.5277 -0.8494 0.8494 0.5277 -157.1119 15.5024)" class="st2" width="4" height="4.1"/>
					
						<rect x="-50.4" y="157.1" transform="matrix(0.5277 -0.8494 0.8494 0.5277 -158.0823 34.0739)" class="st2" width="4" height="4.1"/>
					
						<rect x="-35.3" y="166.6" transform="matrix(0.5277 -0.8494 0.8494 0.5277 -158.94 51.3577)" class="st2" width="4" height="4.1"/>
					
						<rect x="-19.9" y="176.2" transform="matrix(0.5277 -0.8494 0.8494 0.5277 -159.8548 69.0172)" class="st2" width="4" height="4.1"/>
					
						<rect x="-4.7" y="185.6" transform="matrix(0.5277 -0.8494 0.8494 0.5277 -160.7002 86.3476)" class="st2" width="4" height="4.1"/>
					
						<rect x="10.6" y="195.1" transform="matrix(0.5277 -0.8494 0.8494 0.5277 -161.5379 103.8216)" class="st2" width="4" height="4.1"/>
					
						<rect x="25.9" y="204.6" transform="matrix(0.5277 -0.8494 0.8494 0.5277 -162.3757 121.2956)" class="st2" width="4" height="4.1"/>
					
						<rect x="41.3" y="214.2" transform="matrix(0.5277 -0.8494 0.8494 0.5277 -163.2057 138.9133)" class="st2" width="4" height="4.1"/>
					
						<rect x="56.4" y="223.7" transform="matrix(0.5277 -0.8494 0.8494 0.5277 -164.1947 156.2513)" class="st2" width="4" height="4.1"/>
					
						<rect x="70" y="232.1" transform="matrix(0.5277 -0.8494 0.8494 0.5277 -164.9373 171.7406)" class="st2" width="4" height="4.1"/>
				</g>
				<g>
					
						<rect x="-122.2" y="134.3" transform="matrix(0.5277 -0.8494 0.8494 0.5277 -172.5842 -37.663)" class="st2" width="4" height="4.1"/>
					
						<rect x="-107" y="143.7" transform="matrix(0.5277 -0.8494 0.8494 0.5277 -173.4297 -20.3326)" class="st2" width="4" height="4.1"/>
					
						<rect x="-91.8" y="153.2" transform="matrix(0.5277 -0.8494 0.8494 0.5277 -174.2798 -2.9052)" class="st2" width="4" height="4.1"/>
					
						<rect x="-76.4" y="162.7" transform="matrix(0.5277 -0.8494 0.8494 0.5277 -175.1051 14.6154)" class="st2" width="4" height="4.1"/>
					
						<rect x="-60.2" y="172.9" transform="matrix(0.5277 -0.8494 0.8494 0.5277 -176.0755 33.1869)" class="st2" width="4" height="4.1"/>
					
						<rect x="-45.1" y="182.3" transform="matrix(0.5277 -0.8494 0.8494 0.5277 -176.9333 50.4708)" class="st2" width="4" height="4.1"/>
					
						<rect x="-29.6" y="191.9" transform="matrix(0.5277 -0.8494 0.8494 0.5277 -177.751 68.135)" class="st2" width="4" height="4.1"/>
					
						<rect x="-14.4" y="201.3" transform="matrix(0.5277 -0.8494 0.8494 0.5277 -178.5964 85.4653)" class="st2" width="4" height="4.1"/>
					
						<rect x="0.9" y="210.8" transform="matrix(0.5277 -0.8494 0.8494 0.5277 -179.4341 102.9393)" class="st2" width="4" height="4.1"/>
					
						<rect x="16.1" y="220.3" transform="matrix(0.5277 -0.8494 0.8494 0.5277 -180.2719 120.4134)" class="st2" width="4" height="4.1"/>
					
						<rect x="31.5" y="229.9" transform="matrix(0.5277 -0.8494 0.8494 0.5277 -181.1991 138.0263)" class="st2" width="4" height="4.1"/>
					
						<rect x="46.7" y="239.4" transform="matrix(0.5277 -0.8494 0.8494 0.5277 -182.091 155.3691)" class="st2" width="4" height="4.1"/>
					
						<rect x="60.3" y="247.8" transform="matrix(0.5277 -0.8494 0.8494 0.5277 -182.8382 170.9555)" class="st2" width="4" height="4.1"/>
				</g>
				<g>
					
						<rect x="-92.9" y="87.1" transform="matrix(0.5277 -0.8494 0.8494 0.5277 -118.6968 -35.1039)" class="st2" width="4" height="4.1"/>
					
						<rect x="-77.7" y="96.6" transform="matrix(0.5277 -0.8494 0.8494 0.5277 -119.5469 -17.6764)" class="st2" width="4" height="4.1"/>
					
						<rect x="-62.5" y="106" transform="matrix(0.5277 -0.8494 0.8494 0.5277 -120.3923 -0.346)" class="st2" width="4" height="4.1"/>
					
						<rect x="-47.1" y="115.6" transform="matrix(0.5277 -0.8494 0.8494 0.5277 -121.2223 17.2716)" class="st2" width="4" height="4.1"/>
					
						<rect x="-30.9" y="125.7" transform="matrix(0.5277 -0.8494 0.8494 0.5277 -122.188 35.746)" class="st2" width="4" height="4.1"/>
					
						<rect x="-15.8" y="135.1" transform="matrix(0.5277 -0.8494 0.8494 0.5277 -123.0458 53.0299)" class="st2" width="4" height="4.1"/>
					
						<rect x="-0.4" y="144.7" transform="matrix(0.5277 -0.8494 0.8494 0.5277 -123.8635 70.6941)" class="st2" width="4" height="4.1"/>
					
						<rect x="14.9" y="154.2" transform="matrix(0.5277 -0.8494 0.8494 0.5277 -124.7136 88.1216)" class="st2" width="4" height="4.1"/>
					
						<rect x="30.2" y="163.7" transform="matrix(0.5277 -0.8494 0.8494 0.5277 -125.5514 105.5956)" class="st2" width="4" height="4.1"/>
					
						<rect x="45.4" y="173.2" transform="matrix(0.5277 -0.8494 0.8494 0.5277 -126.4862 123.0649)" class="st2" width="4" height="4.1"/>
					
						<rect x="60.8" y="182.7" transform="matrix(0.5277 -0.8494 0.8494 0.5277 -127.3115 140.5854)" class="st2" width="4" height="4.1"/>
					
						<rect x="76" y="192.3" transform="matrix(0.5277 -0.8494 0.8494 0.5277 -128.2081 158.0253)" class="st2" width="4" height="4.1"/>
					
						<rect x="89.6" y="200.7" transform="matrix(0.5277 -0.8494 0.8494 0.5277 -128.9508 173.5146)" class="st2" width="4" height="4.1"/>
				</g>
				<g>
					
						<rect x="-102.6" y="102.8" transform="matrix(0.5277 -0.8494 0.8494 0.5277 -136.5977 -35.8891)" class="st2" width="4" height="4.1"/>
					
						<rect x="-87.4" y="112.3" transform="matrix(0.5277 -0.8494 0.8494 0.5277 -137.4431 -18.5586)" class="st2" width="4" height="4.1"/>
					
						<rect x="-72.2" y="121.7" transform="matrix(0.5277 -0.8494 0.8494 0.5277 -138.2885 -1.2283)" class="st2" width="4" height="4.1"/>
					
						<rect x="-56.9" y="131.3" transform="matrix(0.5277 -0.8494 0.8494 0.5277 -139.2157 16.3847)" class="st2" width="4" height="4.1"/>
					
						<rect x="-40.7" y="141.5" transform="matrix(0.5277 -0.8494 0.8494 0.5277 -140.186 34.9562)" class="st2" width="4" height="4.1"/>
					
						<rect x="-25.5" y="150.9" transform="matrix(0.5277 -0.8494 0.8494 0.5277 -141.0439 52.24)" class="st2" width="4" height="4.1"/>
					
						<rect x="-10.1" y="160.5" transform="matrix(0.5277 -0.8494 0.8494 0.5277 -141.8616 69.9042)" class="st2" width="4" height="4.1"/>
					
						<rect x="5.1" y="169.9" transform="matrix(0.5277 -0.8494 0.8494 0.5277 -142.7069 87.2346)" class="st2" width="4" height="4.1"/>
					
						<rect x="20.4" y="179.4" transform="matrix(0.5277 -0.8494 0.8494 0.5277 -143.5446 104.7086)" class="st2" width="4" height="4.1"/>
					
						<rect x="35.7" y="188.9" transform="matrix(0.5277 -0.8494 0.8494 0.5277 -144.3824 122.1826)" class="st2" width="4" height="4.1"/>
					
						<rect x="51.1" y="198.4" transform="matrix(0.5277 -0.8494 0.8494 0.5277 -145.2125 139.8002)" class="st2" width="4" height="4.1"/>
					
						<rect x="66.2" y="208" transform="matrix(0.5277 -0.8494 0.8494 0.5277 -146.2015 157.1384)" class="st2" width="4" height="4.1"/>
					
						<rect x="79.8" y="216.4" transform="matrix(0.5277 -0.8494 0.8494 0.5277 -146.9441 172.6276)" class="st2" width="4" height="4.1"/>
				</g>
				<g>
					
						<rect x="-73.3" y="55.7" transform="matrix(0.5277 -0.8494 0.8494 0.5277 -82.7102 -33.3299)" class="st2" width="4" height="4.1"/>
					
						<rect x="-58.1" y="65.1" transform="matrix(0.5277 -0.8494 0.8494 0.5277 -83.5604 -15.9024)" class="st2" width="4" height="4.1"/>
					
						<rect x="-42.9" y="74.6" transform="matrix(0.5277 -0.8494 0.8494 0.5277 -84.4058 1.4279)" class="st2" width="4" height="4.1"/>
					
						<rect x="-27.5" y="84.2" transform="matrix(0.5277 -0.8494 0.8494 0.5277 -85.3328 19.0409)" class="st2" width="4" height="4.1"/>
					
						<rect x="-11.4" y="94.3" transform="matrix(0.5277 -0.8494 0.8494 0.5277 -86.2985 37.5153)" class="st2" width="4" height="4.1"/>
					
						<rect x="3.7" y="103.7" transform="matrix(0.5277 -0.8494 0.8494 0.5277 -87.1564 54.7991)" class="st2" width="4" height="4.1"/>
					
						<rect x="19.2" y="113.3" transform="matrix(0.5277 -0.8494 0.8494 0.5277 -87.974 72.4633)" class="st2" width="4" height="4.1"/>
					
						<rect x="34.4" y="122.8" transform="matrix(0.5277 -0.8494 0.8494 0.5277 -88.8241 89.8907)" class="st2" width="4" height="4.1"/>
					
						<rect x="49.7" y="132.3" transform="matrix(0.5277 -0.8494 0.8494 0.5277 -89.6618 107.3648)" class="st2" width="4" height="4.1"/>
					
						<rect x="65" y="141.8" transform="matrix(0.5277 -0.8494 0.8494 0.5277 -90.4996 124.8389)" class="st2" width="4" height="4.1"/>
					
						<rect x="80.3" y="151.3" transform="matrix(0.5277 -0.8494 0.8494 0.5277 -91.422 142.3547)" class="st2" width="4" height="4.1"/>
					
						<rect x="95.5" y="160.8" transform="matrix(0.5277 -0.8494 0.8494 0.5277 -92.314 159.6974)" class="st2" width="4" height="4.1"/>
					
						<rect x="109.1" y="169.3" transform="matrix(0.5277 -0.8494 0.8494 0.5277 -93.0613 175.2839)" class="st2" width="4" height="4.1"/>
				</g>
				<g>
					
						<rect x="-83.1" y="71.4" transform="matrix(0.5277 -0.8494 0.8494 0.5277 -100.7035 -34.2169)" class="st2" width="4" height="4.1"/>
					
						<rect x="-67.9" y="80.9" transform="matrix(0.5277 -0.8494 0.8494 0.5277 -101.5536 -16.7895)" class="st2" width="4" height="4.1"/>
					
						<rect x="-52.7" y="90.3" transform="matrix(0.5277 -0.8494 0.8494 0.5277 -102.399 0.541)" class="st2" width="4" height="4.1"/>
					
						<rect x="-37.3" y="99.9" transform="matrix(0.5277 -0.8494 0.8494 0.5277 -103.2291 18.1587)" class="st2" width="4" height="4.1"/>
					
						<rect x="-21.2" y="110.1" transform="matrix(0.5277 -0.8494 0.8494 0.5277 -104.2918 36.6283)" class="st2" width="4" height="4.1"/>
					
						<rect x="-6" y="119.4" transform="matrix(0.5277 -0.8494 0.8494 0.5277 -105.0526 53.9169)" class="st2" width="4" height="4.1"/>
					
						<rect x="9.4" y="129" transform="matrix(0.5277 -0.8494 0.8494 0.5277 -105.9673 71.5763)" class="st2" width="4" height="4.1"/>
					
						<rect x="24.6" y="138.5" transform="matrix(0.5277 -0.8494 0.8494 0.5277 -106.8175 89.0038)" class="st2" width="4" height="4.1"/>
					
						<rect x="39.9" y="148" transform="matrix(0.5277 -0.8494 0.8494 0.5277 -107.6551 106.4779)" class="st2" width="4" height="4.1"/>
					
						<rect x="55.2" y="157.5" transform="matrix(0.5277 -0.8494 0.8494 0.5277 -108.4929 123.9518)" class="st2" width="4" height="4.1"/>
					
						<rect x="70.6" y="167" transform="matrix(0.5277 -0.8494 0.8494 0.5277 -109.3182 141.4724)" class="st2" width="4" height="4.1"/>
					
						<rect x="85.7" y="176.6" transform="matrix(0.5277 -0.8494 0.8494 0.5277 -110.312 158.9076)" class="st2" width="4" height="4.1"/>
					
						<rect x="99.3" y="185" transform="matrix(0.5277 -0.8494 0.8494 0.5277 -111.0546 174.3969)" class="st2" width="4" height="4.1"/>
				</g>
				<g>
					
						<rect x="-53.8" y="24.3" transform="matrix(0.5277 -0.8494 0.8494 0.5277 -46.8207 -31.5606)" class="st2" width="4" height="4.1"/>
					
						<rect x="-38.6" y="33.7" transform="matrix(0.5277 -0.8494 0.8494 0.5277 -47.6661 -14.2303)" class="st2" width="4" height="4.1"/>
					
						<rect x="-23.4" y="43.2" transform="matrix(0.5277 -0.8494 0.8494 0.5277 -48.5163 3.1972)" class="st2" width="4" height="4.1"/>
					
						<rect x="-8" y="52.7" transform="matrix(0.5277 -0.8494 0.8494 0.5277 -49.3416 20.7177)" class="st2" width="4" height="4.1"/>
					
						<rect x="8.1" y="62.9" transform="matrix(0.5277 -0.8494 0.8494 0.5277 -50.4091 39.2845)" class="st2" width="4" height="4.1"/>
					
						<rect x="23.3" y="72.3" transform="matrix(0.5277 -0.8494 0.8494 0.5277 -51.1698 56.5731)" class="st2" width="4" height="4.1"/>
					
						<rect x="38.7" y="81.9" transform="matrix(0.5277 -0.8494 0.8494 0.5277 -52.0845 74.2326)" class="st2" width="4" height="4.1"/>
					
						<rect x="53.9" y="91.3" transform="matrix(0.5277 -0.8494 0.8494 0.5277 -52.9299 91.563)" class="st2" width="4" height="4.1"/>
					
						<rect x="69.2" y="100.8" transform="matrix(0.5277 -0.8494 0.8494 0.5277 -53.7677 109.0369)" class="st2" width="4" height="4.1"/>
					
						<rect x="84.5" y="110.3" transform="matrix(0.5277 -0.8494 0.8494 0.5277 -54.6055 126.511)" class="st2" width="4" height="4.1"/>
					
						<rect x="99.9" y="119.9" transform="matrix(0.5277 -0.8494 0.8494 0.5277 -55.4355 144.1287)" class="st2" width="4" height="4.1"/>
					
						<rect x="115" y="129.4" transform="matrix(0.5277 -0.8494 0.8494 0.5277 -56.4245 161.4667)" class="st2" width="4" height="4.1"/>
					
						<rect x="128.6" y="137.9" transform="matrix(0.5277 -0.8494 0.8494 0.5277 -57.1718 177.0531)" class="st2" width="4" height="4.1"/>
				</g>
				<g>
					
						<rect x="-63.6" y="40" transform="matrix(0.5277 -0.8494 0.8494 0.5277 -64.814 -32.4476)" class="st2" width="4" height="4.1"/>
					
						<rect x="-48.4" y="49.4" transform="matrix(0.5277 -0.8494 0.8494 0.5277 -65.6594 -15.1173)" class="st2" width="4" height="4.1"/>
					
						<rect x="-33.2" y="58.9" transform="matrix(0.5277 -0.8494 0.8494 0.5277 -66.5096 2.3102)" class="st2" width="4" height="4.1"/>
					
						<rect x="-17.8" y="68.4" transform="matrix(0.5277 -0.8494 0.8494 0.5277 -67.3349 19.8308)" class="st2" width="4" height="4.1"/>
					
						<rect x="-1.6" y="78.6" transform="matrix(0.5277 -0.8494 0.8494 0.5277 -68.3053 38.4023)" class="st2" width="4" height="4.1"/>
					<rect x="13.5" y="88" transform="matrix(0.5277 -0.8494 0.8494 0.5277 -69.163 55.6861)" class="st2" width="4" height="4.1"/>
					
						<rect x="29" y="97.6" transform="matrix(0.5277 -0.8494 0.8494 0.5277 -69.9807 73.3503)" class="st2" width="4" height="4.1"/>
					
						<rect x="44.2" y="107" transform="matrix(0.5277 -0.8494 0.8494 0.5277 -70.8309 90.7778)" class="st2" width="4" height="4.1"/>
					
						<rect x="59.5" y="116.6" transform="matrix(0.5277 -0.8494 0.8494 0.5277 -71.7657 108.247)" class="st2" width="4" height="4.1"/>
					
						<rect x="74.7" y="126" transform="matrix(0.5277 -0.8494 0.8494 0.5277 -72.5987 125.624)" class="st2" width="4" height="4.1"/>
					
						<rect x="90.1" y="135.6" transform="matrix(0.5277 -0.8494 0.8494 0.5277 -73.4287 143.2417)" class="st2" width="4" height="4.1"/>
					
						<rect x="105.2" y="145.1" transform="matrix(0.5277 -0.8494 0.8494 0.5277 -74.3208 160.5844)" class="st2" width="4" height="4.1"/>
					
						<rect x="118.9" y="153.5" transform="matrix(0.5277 -0.8494 0.8494 0.5277 -75.068 176.1708)" class="st2" width="4" height="4.1"/>
				</g>
				<g>
					
						<rect x="-34.3" y="-7.1" transform="matrix(0.5277 -0.8494 0.8494 0.5277 -10.9313 -29.7915)" class="st2" width="4" height="4.1"/>
					
						<rect x="-19.1" y="2.3" transform="matrix(0.5277 -0.8494 0.8494 0.5277 -11.7766 -12.461)" class="st2" width="4" height="4.1"/>
					
						<rect x="-3.9" y="11.7" transform="matrix(0.5277 -0.8494 0.8494 0.5277 -12.6221 4.8694)" class="st2" width="4" height="4.1"/>
					
						<rect x="11.5" y="21.3" transform="matrix(0.5277 -0.8494 0.8494 0.5277 -13.4521 22.487)" class="st2" width="4" height="4.1"/>
					
						<rect x="27.7" y="31.4" transform="matrix(0.5277 -0.8494 0.8494 0.5277 -14.4225 41.0585)" class="st2" width="4" height="4.1"/>
					
						<rect x="42.8" y="40.9" transform="matrix(0.5277 -0.8494 0.8494 0.5277 -15.2803 58.3424)" class="st2" width="4" height="4.1"/>
					
						<rect x="58.2" y="50.5" transform="matrix(0.5277 -0.8494 0.8494 0.5277 -16.195 76.0018)" class="st2" width="4" height="4.1"/>
					
						<rect x="73.4" y="59.9" transform="matrix(0.5277 -0.8494 0.8494 0.5277 -17.0404 93.3322)" class="st2" width="4" height="4.1"/>
					
						<rect x="88.7" y="69.4" transform="matrix(0.5277 -0.8494 0.8494 0.5277 -17.8782 110.8062)" class="st2" width="4" height="4.1"/>
					
						<rect x="104" y="78.9" transform="matrix(0.5277 -0.8494 0.8494 0.5277 -18.7159 128.2802)" class="st2" width="4" height="4.1"/>
					
						<rect x="119.4" y="88.5" transform="matrix(0.5277 -0.8494 0.8494 0.5277 -19.5459 145.8978)" class="st2" width="4" height="4.1"/>
					
						<rect x="134.5" y="98" transform="matrix(0.5277 -0.8494 0.8494 0.5277 -20.535 163.236)" class="st2" width="4" height="4.1"/>
					
						<rect x="148.1" y="106.4" transform="matrix(0.5277 -0.8494 0.8494 0.5277 -21.2776 178.7253)" class="st2" width="4" height="4.1"/>
				</g>
				<g>
					
						<rect x="-44.1" y="8.6" transform="matrix(0.5277 -0.8494 0.8494 0.5277 -28.9245 -30.6785)" class="st2" width="4" height="4.1"/>
					
						<rect x="-28.9" y="18" transform="matrix(0.5277 -0.8494 0.8494 0.5277 -29.7699 -13.348)" class="st2" width="4" height="4.1"/>
					
						<rect x="-13.6" y="27.4" transform="matrix(0.5277 -0.8494 0.8494 0.5277 -30.5229 4.0841)" class="st2" width="4" height="4.1"/>
					<rect x="1.7" y="37" transform="matrix(0.5277 -0.8494 0.8494 0.5277 -31.4454 21.6)" class="st2" width="4" height="4.1"/>
					
						<rect x="17.9" y="47.2" transform="matrix(0.5277 -0.8494 0.8494 0.5277 -32.4157 40.1715)" class="st2" width="4" height="4.1"/>
					
						<rect x="33" y="56.6" transform="matrix(0.5277 -0.8494 0.8494 0.5277 -33.2735 57.4554)" class="st2" width="4" height="4.1"/>
					
						<rect x="48.5" y="66.2" transform="matrix(0.5277 -0.8494 0.8494 0.5277 -34.0912 75.1196)" class="st2" width="4" height="4.1"/>
					
						<rect x="63.7" y="75.6" transform="matrix(0.5277 -0.8494 0.8494 0.5277 -34.9366 92.4499)" class="st2" width="4" height="4.1"/>
					
						<rect x="79" y="85.1" transform="matrix(0.5277 -0.8494 0.8494 0.5277 -35.7744 109.9239)" class="st2" width="4" height="4.1"/>
					
						<rect x="94.3" y="94.6" transform="matrix(0.5277 -0.8494 0.8494 0.5277 -36.6121 127.3979)" class="st2" width="4" height="4.1"/>
					
						<rect x="109.6" y="104.2" transform="matrix(0.5277 -0.8494 0.8494 0.5277 -37.5393 145.0109)" class="st2" width="4" height="4.1"/>
					
						<rect x="124.8" y="113.7" transform="matrix(0.5277 -0.8494 0.8494 0.5277 -38.4312 162.3537)" class="st2" width="4" height="4.1"/>
					
						<rect x="138.3" y="122.1" transform="matrix(0.5277 -0.8494 0.8494 0.5277 -39.1738 177.843)" class="st2" width="4" height="4.1"/>
				</g>
			</g>
			<g class="st1">
				<g>
					
						<rect x="65.9" y="272.9" transform="matrix(0.5277 -0.8494 0.8494 0.5277 -201.4791 187.5225)" class="st2" width="4" height="4.1"/>
					
						<rect x="81.1" y="282.4" transform="matrix(0.5277 -0.8494 0.8494 0.5277 -202.3292 204.9499)" class="st2" width="4" height="4.1"/>
					
						<rect x="96.3" y="291.8" transform="matrix(0.5277 -0.8494 0.8494 0.5277 -203.1746 222.2803)" class="st2" width="4" height="4.1"/>
					
						<rect x="111.6" y="301.3" transform="matrix(0.5277 -0.8494 0.8494 0.5277 -204 239.8008)" class="st2" width="4" height="4.1"/>
					
						<rect x="127.9" y="311.5" transform="matrix(0.5277 -0.8494 0.8494 0.5277 -204.9704 258.3723)" class="st2" width="4" height="4.1"/>
					
						<rect x="143" y="320.9" transform="matrix(0.5277 -0.8494 0.8494 0.5277 -205.8282 275.6562)" class="st2" width="4" height="4.1"/>
					
						<rect x="158.4" y="330.5" transform="matrix(0.5277 -0.8494 0.8494 0.5277 -206.7429 293.3157)" class="st2" width="4" height="4.1"/>
					
						<rect x="173.6" y="340" transform="matrix(0.5277 -0.8494 0.8494 0.5277 -207.593 310.7431)" class="st2" width="4" height="4.1"/>
					
						<rect x="188.9" y="349.5" transform="matrix(0.5277 -0.8494 0.8494 0.5277 -208.4307 328.2171)" class="st2" width="4" height="4.1"/>
					
						<rect x="204.2" y="359" transform="matrix(0.5277 -0.8494 0.8494 0.5277 -209.2685 345.6912)" class="st2" width="4" height="4.1"/>
					
						<rect x="219.6" y="368.5" transform="matrix(0.5277 -0.8494 0.8494 0.5277 -210.0938 363.2118)" class="st2" width="4" height="4.1"/>
					
						<rect x="234.7" y="378" transform="matrix(0.5277 -0.8494 0.8494 0.5277 -211.0829 380.5498)" class="st2" width="4" height="4.1"/>
					
						<rect x="248.3" y="386.5" transform="matrix(0.5277 -0.8494 0.8494 0.5277 -211.8301 396.1363)" class="st2" width="4" height="4.1"/>
				</g>
				<g>
					
						<rect x="56.1" y="288.6" transform="matrix(0.5277 -0.8494 0.8494 0.5277 -219.4724 186.6355)" class="st2" width="4" height="4.1"/>
					
						<rect x="71.3" y="298.1" transform="matrix(0.5277 -0.8494 0.8494 0.5277 -220.3225 204.0629)" class="st2" width="4" height="4.1"/>
					
						<rect x="86.5" y="307.5" transform="matrix(0.5277 -0.8494 0.8494 0.5277 -221.168 221.3933)" class="st2" width="4" height="4.1"/>
					
						<rect x="101.9" y="317.1" transform="matrix(0.5277 -0.8494 0.8494 0.5277 -221.998 239.011)" class="st2" width="4" height="4.1"/>
					
						<rect x="118.1" y="327.2" transform="matrix(0.5277 -0.8494 0.8494 0.5277 -222.9637 257.4854)" class="st2" width="4" height="4.1"/>
					
						<rect x="133.2" y="336.6" transform="matrix(0.5277 -0.8494 0.8494 0.5277 -223.8215 274.7693)" class="st2" width="4" height="4.1"/>
					
						<rect x="148.7" y="346.2" transform="matrix(0.5277 -0.8494 0.8494 0.5277 -224.6391 292.4334)" class="st2" width="4" height="4.1"/>
					
						<rect x="163.9" y="355.7" transform="matrix(0.5277 -0.8494 0.8494 0.5277 -225.4893 309.8609)" class="st2" width="4" height="4.1"/>
					
						<rect x="179.2" y="365.1" transform="matrix(0.5277 -0.8494 0.8494 0.5277 -226.327 327.3349)" class="st2" width="4" height="4.1"/>
					
						<rect x="194.5" y="374.6" transform="matrix(0.5277 -0.8494 0.8494 0.5277 -227.1647 344.809)" class="st2" width="4" height="4.1"/>
					
						<rect x="209.8" y="384.2" transform="matrix(0.5277 -0.8494 0.8494 0.5277 -228.0871 362.3248)" class="st2" width="4" height="4.1"/>
					
						<rect x="225" y="393.7" transform="matrix(0.5277 -0.8494 0.8494 0.5277 -228.9838 379.7646)" class="st2" width="4" height="4.1"/>
					
						<rect x="238.6" y="402.2" transform="matrix(0.5277 -0.8494 0.8494 0.5277 -229.7263 395.254)" class="st2" width="4" height="4.1"/>
				</g>
				<g>
					
						<rect x="47.4" y="302.6" transform="matrix(0.5277 -0.8494 0.8494 0.5277 -235.4682 185.8696)" class="st2" width="4" height="4.1"/>
					
						<rect x="62.7" y="312" transform="matrix(0.5277 -0.8494 0.8494 0.5277 -236.2212 203.3018)" class="st2" width="4" height="4.1"/>
					
						<rect x="77.9" y="321.5" transform="matrix(0.5277 -0.8494 0.8494 0.5277 -237.0666 220.6322)" class="st2" width="4" height="4.1"/>
					
						<rect x="93.2" y="331.1" transform="matrix(0.5277 -0.8494 0.8494 0.5277 -237.9937 238.2451)" class="st2" width="4" height="4.1"/>
					
						<rect x="109.4" y="341.2" transform="matrix(0.5277 -0.8494 0.8494 0.5277 -238.9594 256.7195)" class="st2" width="4" height="4.1"/>
					
						<rect x="124.5" y="350.6" transform="matrix(0.5277 -0.8494 0.8494 0.5277 -239.8172 274.0034)" class="st2" width="4" height="4.1"/>
					
						<rect x="140" y="360.2" transform="matrix(0.5277 -0.8494 0.8494 0.5277 -240.6349 291.6676)" class="st2" width="4" height="4.1"/>
					
						<rect x="155.2" y="369.7" transform="matrix(0.5277 -0.8494 0.8494 0.5277 -241.485 309.095)" class="st2" width="4" height="4.1"/>
					
						<rect x="170.5" y="379.1" transform="matrix(0.5277 -0.8494 0.8494 0.5277 -242.3227 326.569)" class="st2" width="4" height="4.1"/>
					
						<rect x="185.8" y="388.6" transform="matrix(0.5277 -0.8494 0.8494 0.5277 -243.1605 344.0431)" class="st2" width="4" height="4.1"/>
					
						<rect x="201.1" y="398.2" transform="matrix(0.5277 -0.8494 0.8494 0.5277 -244.0829 361.5589)" class="st2" width="4" height="4.1"/>
					
						<rect x="216.2" y="407.7" transform="matrix(0.5277 -0.8494 0.8494 0.5277 -244.9749 378.9017)" class="st2" width="4" height="4.1"/>
					
						<rect x="229.9" y="416.2" transform="matrix(0.5277 -0.8494 0.8494 0.5277 -245.7221 394.4881)" class="st2" width="4" height="4.1"/>
				</g>
				<g>
					
						<rect x="85.4" y="241.5" transform="matrix(0.5277 -0.8494 0.8494 0.5277 -165.5896 189.2917)" class="st2" width="4" height="4.1"/>
					
						<rect x="100.6" y="250.9" transform="matrix(0.5277 -0.8494 0.8494 0.5277 -166.435 206.6221)" class="st2" width="4" height="4.1"/>
					
						<rect x="115.8" y="260.4" transform="matrix(0.5277 -0.8494 0.8494 0.5277 -167.2851 224.0496)" class="st2" width="4" height="4.1"/>
					
						<rect x="131.2" y="269.9" transform="matrix(0.5277 -0.8494 0.8494 0.5277 -168.1105 241.5701)" class="st2" width="4" height="4.1"/>
					
						<rect x="147.4" y="280.1" transform="matrix(0.5277 -0.8494 0.8494 0.5277 -169.0809 260.1416)" class="st2" width="4" height="4.1"/>
					
						<rect x="162.5" y="289.5" transform="matrix(0.5277 -0.8494 0.8494 0.5277 -169.9387 277.4255)" class="st2" width="4" height="4.1"/>
					
						<rect x="178" y="299.1" transform="matrix(0.5277 -0.8494 0.8494 0.5277 -170.7563 295.0896)" class="st2" width="4" height="4.1"/>
					
						<rect x="193.1" y="308.5" transform="matrix(0.5277 -0.8494 0.8494 0.5277 -171.6017 312.42)" class="st2" width="4" height="4.1"/>
					
						<rect x="208.4" y="318" transform="matrix(0.5277 -0.8494 0.8494 0.5277 -172.4395 329.894)" class="st2" width="4" height="4.1"/>
					
						<rect x="223.7" y="327.5" transform="matrix(0.5277 -0.8494 0.8494 0.5277 -173.3743 347.3633)" class="st2" width="4" height="4.1"/>
					
						<rect x="239.1" y="337.1" transform="matrix(0.5277 -0.8494 0.8494 0.5277 -174.2044 364.981)" class="st2" width="4" height="4.1"/>
					
						<rect x="254.3" y="346.6" transform="matrix(0.5277 -0.8494 0.8494 0.5277 -175.0963 382.3238)" class="st2" width="4" height="4.1"/>
					
						<rect x="267.9" y="355" transform="matrix(0.5277 -0.8494 0.8494 0.5277 -175.8436 397.9102)" class="st2" width="4" height="4.1"/>
				</g>
				<g>
					
						<rect x="75.7" y="257.2" transform="matrix(0.5277 -0.8494 0.8494 0.5277 -183.4858 188.4094)" class="st2" width="4" height="4.1"/>
					
						<rect x="90.8" y="266.6" transform="matrix(0.5277 -0.8494 0.8494 0.5277 -184.3312 205.7399)" class="st2" width="4" height="4.1"/>
					
						<rect x="106.1" y="276.1" transform="matrix(0.5277 -0.8494 0.8494 0.5277 -185.1813 223.1673)" class="st2" width="4" height="4.1"/>
					
						<rect x="121.4" y="285.6" transform="matrix(0.5277 -0.8494 0.8494 0.5277 -186.1037 240.6831)" class="st2" width="4" height="4.1"/>
					
						<rect x="137.6" y="295.8" transform="matrix(0.5277 -0.8494 0.8494 0.5277 -187.0742 259.2546)" class="st2" width="4" height="4.1"/>
					
						<rect x="152.7" y="305.2" transform="matrix(0.5277 -0.8494 0.8494 0.5277 -187.9319 276.5385)" class="st2" width="4" height="4.1"/>
					
						<rect x="168.2" y="314.8" transform="matrix(0.5277 -0.8494 0.8494 0.5277 -188.7496 294.2027)" class="st2" width="4" height="4.1"/>
					
						<rect x="183.4" y="324.2" transform="matrix(0.5277 -0.8494 0.8494 0.5277 -189.5951 311.5331)" class="st2" width="4" height="4.1"/>
					
						<rect x="198.6" y="333.7" transform="matrix(0.5277 -0.8494 0.8494 0.5277 -190.4328 329.0071)" class="st2" width="4" height="4.1"/>
					
						<rect x="213.9" y="343.2" transform="matrix(0.5277 -0.8494 0.8494 0.5277 -191.2705 346.4811)" class="st2" width="4" height="4.1"/>
					
						<rect x="229.4" y="352.7" transform="matrix(0.5277 -0.8494 0.8494 0.5277 -192.1006 364.0987)" class="st2" width="4" height="4.1"/>
					
						<rect x="244.5" y="362.3" transform="matrix(0.5277 -0.8494 0.8494 0.5277 -193.0896 381.4368)" class="st2" width="4" height="4.1"/>
					
						<rect x="258.1" y="370.8" transform="matrix(0.5277 -0.8494 0.8494 0.5277 -193.8368 397.0232)" class="st2" width="4" height="4.1"/>
				</g>
				<g>
					
						<rect x="104.9" y="210" transform="matrix(0.5277 -0.8494 0.8494 0.5277 -129.5983 190.9686)" class="st2" width="4" height="4.1"/>
					
						<rect x="120.2" y="219.5" transform="matrix(0.5277 -0.8494 0.8494 0.5277 -130.4485 208.396)" class="st2" width="4" height="4.1"/>
					
						<rect x="135.3" y="228.9" transform="matrix(0.5277 -0.8494 0.8494 0.5277 -131.2939 225.7265)" class="st2" width="4" height="4.1"/>
					
						<rect x="150.7" y="238.5" transform="matrix(0.5277 -0.8494 0.8494 0.5277 -132.221 243.3394)" class="st2" width="4" height="4.1"/>
					
						<rect x="166.9" y="248.7" transform="matrix(0.5277 -0.8494 0.8494 0.5277 -133.1914 261.9109)" class="st2" width="4" height="4.1"/>
					
						<rect x="182" y="258.1" transform="matrix(0.5277 -0.8494 0.8494 0.5277 -134.0492 279.1947)" class="st2" width="4" height="4.1"/>
					
						<rect x="197.5" y="267.7" transform="matrix(0.5277 -0.8494 0.8494 0.5277 -134.8668 296.8589)" class="st2" width="4" height="4.1"/>
					
						<rect x="212.7" y="277.1" transform="matrix(0.5277 -0.8494 0.8494 0.5277 -135.7122 314.1893)" class="st2" width="4" height="4.1"/>
					
						<rect x="228" y="286.6" transform="matrix(0.5277 -0.8494 0.8494 0.5277 -136.55 331.6633)" class="st2" width="4" height="4.1"/>
					
						<rect x="243.3" y="296.1" transform="matrix(0.5277 -0.8494 0.8494 0.5277 -137.3877 349.1373)" class="st2" width="4" height="4.1"/>
					
						<rect x="258.6" y="305.7" transform="matrix(0.5277 -0.8494 0.8494 0.5277 -138.3148 366.7502)" class="st2" width="4" height="4.1"/>
					
						<rect x="273.8" y="315.2" transform="matrix(0.5277 -0.8494 0.8494 0.5277 -139.2068 384.093)" class="st2" width="4" height="4.1"/>
					
						<rect x="287.4" y="323.6" transform="matrix(0.5277 -0.8494 0.8494 0.5277 -139.9494 399.5823)" class="st2" width="4" height="4.1"/>
				</g>
				<g>
					
						<rect x="95.2" y="225.8" transform="matrix(0.5277 -0.8494 0.8494 0.5277 -147.5963 190.1786)" class="st2" width="4" height="4.1"/>
					
						<rect x="110.4" y="235.2" transform="matrix(0.5277 -0.8494 0.8494 0.5277 -148.4417 207.5091)" class="st2" width="4" height="4.1"/>
					
						<rect x="125.6" y="244.7" transform="matrix(0.5277 -0.8494 0.8494 0.5277 -149.2918 224.9365)" class="st2" width="4" height="4.1"/>
					
						<rect x="141" y="254.2" transform="matrix(0.5277 -0.8494 0.8494 0.5277 -150.1172 242.4571)" class="st2" width="4" height="4.1"/>
					
						<rect x="157.1" y="264.4" transform="matrix(0.5277 -0.8494 0.8494 0.5277 -151.1846 261.0239)" class="st2" width="4" height="4.1"/>
					
						<rect x="172.3" y="273.7" transform="matrix(0.5277 -0.8494 0.8494 0.5277 -151.9454 278.3124)" class="st2" width="4" height="4.1"/>
					
						<rect x="187.7" y="283.4" transform="matrix(0.5277 -0.8494 0.8494 0.5277 -152.8602 295.9719)" class="st2" width="4" height="4.1"/>
					
						<rect x="202.9" y="292.8" transform="matrix(0.5277 -0.8494 0.8494 0.5277 -153.7056 313.3024)" class="st2" width="4" height="4.1"/>
					
						<rect x="218.2" y="302.3" transform="matrix(0.5277 -0.8494 0.8494 0.5277 -154.5432 330.7763)" class="st2" width="4" height="4.1"/>
					
						<rect x="233.5" y="311.8" transform="matrix(0.5277 -0.8494 0.8494 0.5277 -155.381 348.2503)" class="st2" width="4" height="4.1"/>
					
						<rect x="248.9" y="321.4" transform="matrix(0.5277 -0.8494 0.8494 0.5277 -156.2111 365.868)" class="st2" width="4" height="4.1"/>
					
						<rect x="264" y="330.9" transform="matrix(0.5277 -0.8494 0.8494 0.5277 -157.2001 383.2061)" class="st2" width="4" height="4.1"/>
					
						<rect x="277.6" y="339.3" transform="matrix(0.5277 -0.8494 0.8494 0.5277 -157.9427 398.6953)" class="st2" width="4" height="4.1"/>
				</g>
				<g>
					
						<rect x="124.5" y="178.6" transform="matrix(0.5277 -0.8494 0.8494 0.5277 -93.7088 192.7378)" class="st2" width="4" height="4.1"/>
					
						<rect x="139.7" y="188.1" transform="matrix(0.5277 -0.8494 0.8494 0.5277 -94.559 210.1653)" class="st2" width="4" height="4.1"/>
					
						<rect x="154.9" y="197.5" transform="matrix(0.5277 -0.8494 0.8494 0.5277 -95.4044 227.4956)" class="st2" width="4" height="4.1"/>
					
						<rect x="170.3" y="207" transform="matrix(0.5277 -0.8494 0.8494 0.5277 -96.2344 245.1133)" class="st2" width="4" height="4.1"/>
					
						<rect x="186.4" y="217.2" transform="matrix(0.5277 -0.8494 0.8494 0.5277 -97.2972 263.5831)" class="st2" width="4" height="4.1"/>
					
						<rect x="201.5" y="226.6" transform="matrix(0.5277 -0.8494 0.8494 0.5277 -98.0579 280.8716)" class="st2" width="4" height="4.1"/>
					
						<rect x="217" y="236.2" transform="matrix(0.5277 -0.8494 0.8494 0.5277 -98.9726 298.531)" class="st2" width="4" height="4.1"/>
					
						<rect x="232.2" y="245.7" transform="matrix(0.5277 -0.8494 0.8494 0.5277 -99.8228 315.9585)" class="st2" width="4" height="4.1"/>
					
						<rect x="247.5" y="255.2" transform="matrix(0.5277 -0.8494 0.8494 0.5277 -100.6605 333.4325)" class="st2" width="4" height="4.1"/>
					
						<rect x="262.8" y="264.7" transform="matrix(0.5277 -0.8494 0.8494 0.5277 -101.4982 350.9066)" class="st2" width="4" height="4.1"/>
					
						<rect x="278.2" y="274.2" transform="matrix(0.5277 -0.8494 0.8494 0.5277 -102.3235 368.4272)" class="st2" width="4" height="4.1"/>
					
						<rect x="293.3" y="283.8" transform="matrix(0.5277 -0.8494 0.8494 0.5277 -103.3173 385.8622)" class="st2" width="4" height="4.1"/>
					
						<rect x="306.9" y="292.2" transform="matrix(0.5277 -0.8494 0.8494 0.5277 -104.0599 401.3516)" class="st2" width="4" height="4.1"/>
				</g>
				<g>
					
						<rect x="114.7" y="194.3" transform="matrix(0.5277 -0.8494 0.8494 0.5277 -111.7021 191.8508)" class="st2" width="4" height="4.1"/>
					
						<rect x="129.9" y="203.8" transform="matrix(0.5277 -0.8494 0.8494 0.5277 -112.5523 209.2783)" class="st2" width="4" height="4.1"/>
					
						<rect x="145.1" y="213.2" transform="matrix(0.5277 -0.8494 0.8494 0.5277 -113.3976 226.6087)" class="st2" width="4" height="4.1"/>
					
						<rect x="160.5" y="222.8" transform="matrix(0.5277 -0.8494 0.8494 0.5277 -114.2277 244.2264)" class="st2" width="4" height="4.1"/>
					
						<rect x="176.6" y="232.9" transform="matrix(0.5277 -0.8494 0.8494 0.5277 -115.1933 262.7008)" class="st2" width="4" height="4.1"/>
					
						<rect x="191.8" y="242.3" transform="matrix(0.5277 -0.8494 0.8494 0.5277 -116.0512 279.9846)" class="st2" width="4" height="4.1"/>
					
						<rect x="207.2" y="251.9" transform="matrix(0.5277 -0.8494 0.8494 0.5277 -116.8689 297.6488)" class="st2" width="4" height="4.1"/>
					
						<rect x="222.5" y="261.3" transform="matrix(0.5277 -0.8494 0.8494 0.5277 -117.719 315.0762)" class="st2" width="4" height="4.1"/>
					
						<rect x="237.7" y="270.9" transform="matrix(0.5277 -0.8494 0.8494 0.5277 -118.6537 332.5456)" class="st2" width="4" height="4.1"/>
					
						<rect x="253" y="280.4" transform="matrix(0.5277 -0.8494 0.8494 0.5277 -119.4915 350.0196)" class="st2" width="4" height="4.1"/>
					
						<rect x="268.4" y="289.9" transform="matrix(0.5277 -0.8494 0.8494 0.5277 -120.3169 367.5402)" class="st2" width="4" height="4.1"/>
					
						<rect x="283.6" y="299.4" transform="matrix(0.5277 -0.8494 0.8494 0.5277 -121.2135 384.98)" class="st2" width="4" height="4.1"/>
					
						<rect x="297.2" y="307.9" transform="matrix(0.5277 -0.8494 0.8494 0.5277 -121.9561 400.4693)" class="st2" width="4" height="4.1"/>
				</g>
				<g>
					
						<rect x="144" y="147.2" transform="matrix(0.5277 -0.8494 0.8494 0.5277 -57.8193 194.5071)" class="st2" width="4" height="4.1"/>
					
						<rect x="159.2" y="156.6" transform="matrix(0.5277 -0.8494 0.8494 0.5277 -58.6648 211.8375)" class="st2" width="4" height="4.1"/>
					
						<rect x="174.4" y="166.1" transform="matrix(0.5277 -0.8494 0.8494 0.5277 -59.5149 229.2649)" class="st2" width="4" height="4.1"/>
					
						<rect x="189.8" y="175.6" transform="matrix(0.5277 -0.8494 0.8494 0.5277 -60.3402 246.7854)" class="st2" width="4" height="4.1"/>
					
						<rect x="206" y="185.8" transform="matrix(0.5277 -0.8494 0.8494 0.5277 -61.3106 265.3569)" class="st2" width="4" height="4.1"/>
					
						<rect x="221.1" y="195.2" transform="matrix(0.5277 -0.8494 0.8494 0.5277 -62.1684 282.6408)" class="st2" width="4" height="4.1"/>
					
						<rect x="236.5" y="204.8" transform="matrix(0.5277 -0.8494 0.8494 0.5277 -63.0831 300.3003)" class="st2" width="4" height="4.1"/>
					
						<rect x="251.7" y="214.3" transform="matrix(0.5277 -0.8494 0.8494 0.5277 -63.9285 317.6306)" class="st2" width="4" height="4.1"/>
					
						<rect x="267" y="223.7" transform="matrix(0.5277 -0.8494 0.8494 0.5277 -64.7662 335.1046)" class="st2" width="4" height="4.1"/>
					
						<rect x="282.3" y="233.2" transform="matrix(0.5277 -0.8494 0.8494 0.5277 -65.6041 352.5787)" class="st2" width="4" height="4.1"/>
					
						<rect x="297.7" y="242.8" transform="matrix(0.5277 -0.8494 0.8494 0.5277 -66.434 370.1964)" class="st2" width="4" height="4.1"/>
					
						<rect x="312.8" y="252.3" transform="matrix(0.5277 -0.8494 0.8494 0.5277 -67.4231 387.5344)" class="st2" width="4" height="4.1"/>
					
						<rect x="326.4" y="260.8" transform="matrix(0.5277 -0.8494 0.8494 0.5277 -68.1704 403.1208)" class="st2" width="4" height="4.1"/>
				</g>
				<g>
					
						<rect x="134.2" y="162.9" transform="matrix(0.5277 -0.8494 0.8494 0.5277 -75.8126 193.6201)" class="st2" width="4" height="4.1"/>
					
						<rect x="149.5" y="172.4" transform="matrix(0.5277 -0.8494 0.8494 0.5277 -76.6627 211.0475)" class="st2" width="4" height="4.1"/>
					
						<rect x="164.7" y="181.8" transform="matrix(0.5277 -0.8494 0.8494 0.5277 -77.4111 228.3826)" class="st2" width="4" height="4.1"/>
					
						<rect x="180" y="191.4" transform="matrix(0.5277 -0.8494 0.8494 0.5277 -78.3382 245.9955)" class="st2" width="4" height="4.1"/>
					
						<rect x="196.2" y="201.5" transform="matrix(0.5277 -0.8494 0.8494 0.5277 -79.3039 264.4699)" class="st2" width="4" height="4.1"/>
					
						<rect x="211.3" y="210.9" transform="matrix(0.5277 -0.8494 0.8494 0.5277 -80.1617 281.7538)" class="st2" width="4" height="4.1"/>
					
						<rect x="226.8" y="220.5" transform="matrix(0.5277 -0.8494 0.8494 0.5277 -80.9793 299.418)" class="st2" width="4" height="4.1"/>
					
						<rect x="242" y="230" transform="matrix(0.5277 -0.8494 0.8494 0.5277 -81.8295 316.8455)" class="st2" width="4" height="4.1"/>
					
						<rect x="257.3" y="239.4" transform="matrix(0.5277 -0.8494 0.8494 0.5277 -82.6672 334.3195)" class="st2" width="4" height="4.1"/>
					
						<rect x="272.6" y="248.9" transform="matrix(0.5277 -0.8494 0.8494 0.5277 -83.5049 351.7935)" class="st2" width="4" height="4.1"/>
					
						<rect x="287.9" y="258.5" transform="matrix(0.5277 -0.8494 0.8494 0.5277 -84.4273 369.3094)" class="st2" width="4" height="4.1"/>
					
						<rect x="303" y="268" transform="matrix(0.5277 -0.8494 0.8494 0.5277 -85.3193 386.6522)" class="st2" width="4" height="4.1"/>
					
						<rect x="316.7" y="276.5" transform="matrix(0.5277 -0.8494 0.8494 0.5277 -86.0666 402.2386)" class="st2" width="4" height="4.1"/>
				</g>
				<g>
					
						<rect x="163.5" y="115.8" transform="matrix(0.5277 -0.8494 0.8494 0.5277 -21.9298 196.2763)" class="st2" width="4" height="4.1"/>
					
						<rect x="178.7" y="125.2" transform="matrix(0.5277 -0.8494 0.8494 0.5277 -22.7753 213.6067)" class="st2" width="4" height="4.1"/>
					
						<rect x="193.9" y="134.7" transform="matrix(0.5277 -0.8494 0.8494 0.5277 -23.6254 231.0341)" class="st2" width="4" height="4.1"/>
					
						<rect x="209.3" y="144.2" transform="matrix(0.5277 -0.8494 0.8494 0.5277 -24.4507 248.5547)" class="st2" width="4" height="4.1"/>
					
						<rect x="225.5" y="154.4" transform="matrix(0.5277 -0.8494 0.8494 0.5277 -25.4211 267.1262)" class="st2" width="4" height="4.1"/>
					
						<rect x="240.6" y="163.8" transform="matrix(0.5277 -0.8494 0.8494 0.5277 -26.2789 284.41)" class="st2" width="4" height="4.1"/>
					
						<rect x="256.1" y="173.4" transform="matrix(0.5277 -0.8494 0.8494 0.5277 -27.0966 302.0742)" class="st2" width="4" height="4.1"/>
					
						<rect x="271.3" y="182.8" transform="matrix(0.5277 -0.8494 0.8494 0.5277 -27.942 319.4046)" class="st2" width="4" height="4.1"/>
					
						<rect x="286.6" y="192.3" transform="matrix(0.5277 -0.8494 0.8494 0.5277 -28.7797 336.8786)" class="st2" width="4" height="4.1"/>
					
						<rect x="301.8" y="201.8" transform="matrix(0.5277 -0.8494 0.8494 0.5277 -29.6175 354.3527)" class="st2" width="4" height="4.1"/>
					
						<rect x="317.2" y="211.4" transform="matrix(0.5277 -0.8494 0.8494 0.5277 -30.5446 371.9656)" class="st2" width="4" height="4.1"/>
					
						<rect x="332.4" y="220.9" transform="matrix(0.5277 -0.8494 0.8494 0.5277 -31.4365 389.3084)" class="st2" width="4" height="4.1"/>
					
						<rect x="345.9" y="229.3" transform="matrix(0.5277 -0.8494 0.8494 0.5277 -32.1791 404.7977)" class="st2" width="4" height="4.1"/>
				</g>
				<g>
					
						<rect x="153.8" y="131.5" transform="matrix(0.5277 -0.8494 0.8494 0.5277 -39.8261 195.394)" class="st2" width="4" height="4.1"/>
					
						<rect x="169" y="140.9" transform="matrix(0.5277 -0.8494 0.8494 0.5277 -40.6714 212.7244)" class="st2" width="4" height="4.1"/>
					
						<rect x="184.2" y="150.4" transform="matrix(0.5277 -0.8494 0.8494 0.5277 -41.5216 230.1519)" class="st2" width="4" height="4.1"/>
					
						<rect x="199.6" y="159.9" transform="matrix(0.5277 -0.8494 0.8494 0.5277 -42.347 247.6725)" class="st2" width="4" height="4.1"/>
					
						<rect x="215.7" y="170.1" transform="matrix(0.5277 -0.8494 0.8494 0.5277 -43.4144 266.2392)" class="st2" width="4" height="4.1"/>
					
						<rect x="230.8" y="179.5" transform="matrix(0.5277 -0.8494 0.8494 0.5277 -44.2722 283.5231)" class="st2" width="4" height="4.1"/>
					
						<rect x="246.3" y="189.1" transform="matrix(0.5277 -0.8494 0.8494 0.5277 -45.0898 301.1873)" class="st2" width="4" height="4.1"/>
					
						<rect x="261.5" y="198.5" transform="matrix(0.5277 -0.8494 0.8494 0.5277 -45.9353 318.5177)" class="st2" width="4" height="4.1"/>
					
						<rect x="276.8" y="208" transform="matrix(0.5277 -0.8494 0.8494 0.5277 -46.773 335.9917)" class="st2" width="4" height="4.1"/>
					
						<rect x="292.1" y="217.5" transform="matrix(0.5277 -0.8494 0.8494 0.5277 -47.6107 353.4657)" class="st2" width="4" height="4.1"/>
					
						<rect x="307.5" y="227.1" transform="matrix(0.5277 -0.8494 0.8494 0.5277 -48.4408 371.0833)" class="st2" width="4" height="4.1"/>
					
						<rect x="322.6" y="236.6" transform="matrix(0.5277 -0.8494 0.8494 0.5277 -49.4298 388.4214)" class="st2" width="4" height="4.1"/>
					
						<rect x="336.2" y="245.1" transform="matrix(0.5277 -0.8494 0.8494 0.5277 -50.177 404.0078)" class="st2" width="4" height="4.1"/>
				</g>
			</g>
		</g>
	</g>
</g>
</svg>
