<?xml version="1.0" encoding="utf-8"?>
<!-- Generator: Adobe Illustrator 22.1.0, SVG Export Plug-In . SVG Version: 6.00 Build 0)  -->
<svg version="1.1" id="Layer_1" xmlns="http://www.w3.org/2000/svg" xmlns:xlink="http://www.w3.org/1999/xlink" x="0px" y="0px"
	 viewBox="0 0 307.6 307.6" style="enable-background:new 0 0 307.6 307.6;" xml:space="preserve">
<style type="text/css">
	.st0{opacity:0.2;}
	.st1{fill:#FAFAFA;}
</style>
<g class="st0">
	<g>
		<rect x="134.5" y="0.8" transform="matrix(0.6218 -0.7832 0.7832 0.6218 49.4103 107.9794)" class="st1" width="4" height="4.1"/>
		
			<rect x="148.5" y="11.8" transform="matrix(0.6218 -0.7832 0.7832 0.6218 46.0388 123.1064)" class="st1" width="4" height="4.1"/>
		<rect x="162.5" y="23" transform="matrix(0.6218 -0.7832 0.7832 0.6218 42.612 138.3294)" class="st1" width="4" height="4.1"/>
		<rect x="176.7" y="34.3" transform="matrix(0.6218 -0.7832 0.7832 0.6218 39.161 153.7068)" class="st1" width="4" height="4.1"/>
		
			<rect x="191.6" y="46.1" transform="matrix(0.6218 -0.7832 0.7832 0.6218 35.4999 169.8382)" class="st1" width="4" height="4.1"/>
		
			<rect x="205.6" y="57.2" transform="matrix(0.6218 -0.7832 0.7832 0.6218 32.1144 185.0146)" class="st1" width="4" height="4.1"/>
		
			<rect x="219.9" y="68.5" transform="matrix(0.6218 -0.7832 0.7832 0.6218 28.6696 200.4637)" class="st1" width="4" height="4.1"/>
		<rect x="233.9" y="79.6" transform="matrix(0.6218 -0.7832 0.7832 0.6218 25.2618 215.602)" class="st1" width="4" height="4.1"/>
		<rect x="248" y="90.8" transform="matrix(0.6218 -0.7832 0.7832 0.6218 21.8411 230.8965)" class="st1" width="4" height="4.1"/>
		<rect x="262.1" y="102" transform="matrix(0.6218 -0.7832 0.7832 0.6218 18.4203 246.1912)" class="st1" width="4" height="4.1"/>
		
			<rect x="276.2" y="113.3" transform="matrix(0.6218 -0.7832 0.7832 0.6218 14.8846 261.5496)" class="st1" width="4" height="4.1"/>
		
			<rect x="290.3" y="124.5" transform="matrix(0.6218 -0.7832 0.7832 0.6218 11.4689 276.8088)" class="st1" width="4" height="4.1"/>
		
			<rect x="302.8" y="134.3" transform="matrix(0.6218 -0.7832 0.7832 0.6218 8.4662 290.2745)" class="st1" width="4" height="4.1"/>
	</g>
	<g>
		
			<rect x="124.6" y="13.2" transform="matrix(0.6218 -0.7832 0.7832 0.6218 35.9315 104.9514)" class="st1" width="4" height="4.1"/>
		
			<rect x="138.6" y="24.3" transform="matrix(0.6218 -0.7832 0.7832 0.6218 32.5237 120.0896)" class="st1" width="4" height="4.1"/>
		<rect x="152.6" y="35.4" transform="matrix(0.6218 -0.7832 0.7832 0.6218 29.116 135.2278)" class="st1" width="4" height="4.1"/>
		
			<rect x="166.9" y="46.7" transform="matrix(0.6218 -0.7832 0.7832 0.6218 25.6822 150.6789)" class="st1" width="4" height="4.1"/>
		
			<rect x="181.8" y="58.6" transform="matrix(0.6218 -0.7832 0.7832 0.6218 22.0131 166.9314)" class="st1" width="4" height="4.1"/>
		<rect x="195.7" y="69.7" transform="matrix(0.6218 -0.7832 0.7832 0.6218 18.5992 181.998)" class="st1" width="4" height="4.1"/>
		<rect x="210" y="81" transform="matrix(0.6218 -0.7832 0.7832 0.6218 15.1544 197.447)" class="st1" width="4" height="4.1"/>
		<rect x="224" y="92.1" transform="matrix(0.6218 -0.7832 0.7832 0.6218 11.7467 212.5852)" class="st1" width="4" height="4.1"/>
		
			<rect x="238.1" y="103.3" transform="matrix(0.6218 -0.7832 0.7832 0.6218 8.3259 227.8799)" class="st1" width="4" height="4.1"/>
		
			<rect x="252.2" y="114.5" transform="matrix(0.6218 -0.7832 0.7832 0.6218 4.9051 243.1745)" class="st1" width="4" height="4.1"/>
		<rect x="266.3" y="125.7" transform="matrix(0.6218 -0.7832 0.7832 0.6218 1.3885 258.448)" class="st1" width="4" height="4.1"/>
		<rect x="280.5" y="136.9" transform="matrix(0.6218 -0.7832 0.7832 0.6218 -2.01 273.781)" class="st1" width="4" height="4.1"/>
		
			<rect x="292.9" y="146.8" transform="matrix(0.6218 -0.7832 0.7832 0.6218 -5.049 287.2578)" class="st1" width="4" height="4.1"/>
	</g>
	<g>
		
			<rect x="112.9" y="27.8" transform="matrix(0.6218 -0.7832 0.7832 0.6218 20.0614 101.3133)" class="st1" width="4" height="4.1"/>
		<rect x="127" y="39" transform="matrix(0.6218 -0.7832 0.7832 0.6218 16.6457 116.5726)" class="st1" width="4" height="4.1"/>
		<rect x="141" y="50.1" transform="matrix(0.6218 -0.7832 0.7832 0.6218 13.238 131.7107)" class="st1" width="4" height="4.1"/>
		<rect x="155.2" y="61.3" transform="matrix(0.6218 -0.7832 0.7832 0.6218 9.8233 147.077)" class="st1" width="4" height="4.1"/>
		<rect x="170.1" y="73.2" transform="matrix(0.6218 -0.7832 0.7832 0.6218 6.143 163.2932)" class="st1" width="4" height="4.1"/>
		<rect x="184.1" y="84.3" transform="matrix(0.6218 -0.7832 0.7832 0.6218 2.7404 178.3961)" class="st1" width="4" height="4.1"/>
		
			<rect x="198.3" y="95.6" transform="matrix(0.6218 -0.7832 0.7832 0.6218 -0.7156 193.8088)" class="st1" width="4" height="4.1"/>
		
			<rect x="212.3" y="106.8" transform="matrix(0.6218 -0.7832 0.7832 0.6218 -4.2162 209.0491)" class="st1" width="4" height="4.1"/>
		<rect x="226.5" y="118" transform="matrix(0.6218 -0.7832 0.7832 0.6218 -7.6369 224.3438)" class="st1" width="4" height="4.1"/>
		
			<rect x="240.5" y="129.2" transform="matrix(0.6218 -0.7832 0.7832 0.6218 -11.0386 239.5536)" class="st1" width="4" height="4.1"/>
		
			<rect x="254.7" y="140.4" transform="matrix(0.6218 -0.7832 0.7832 0.6218 -14.4895 254.931)" class="st1" width="4" height="4.1"/>
		
			<rect x="268.8" y="151.5" transform="matrix(0.6218 -0.7832 0.7832 0.6218 -17.7952 270.1619)" class="st1" width="4" height="4.1"/>
		
			<rect x="281.3" y="161.5" transform="matrix(0.6218 -0.7832 0.7832 0.6218 -20.9269 283.7407)" class="st1" width="4" height="4.1"/>
	</g>
	<g>
		<rect x="101.7" y="42" transform="matrix(0.6218 -0.7832 0.7832 0.6218 4.6952 97.8986)" class="st1" width="4" height="4.1"/>
		<rect x="115.7" y="53.1" transform="matrix(0.6218 -0.7832 0.7832 0.6218 1.2875 113.0368)" class="st1" width="4" height="4.1"/>
		
			<rect x="129.7" y="64.3" transform="matrix(0.6218 -0.7832 0.7832 0.6218 -2.1395 128.2599)" class="st1" width="4" height="4.1"/>
		
			<rect x="143.9" y="75.5" transform="matrix(0.6218 -0.7832 0.7832 0.6218 -5.5541 143.6261)" class="st1" width="4" height="4.1"/>
		
			<rect x="158.9" y="87.4" transform="matrix(0.6218 -0.7832 0.7832 0.6218 -9.2232 159.8786)" class="st1" width="4" height="4.1"/>
		
			<rect x="172.8" y="98.5" transform="matrix(0.6218 -0.7832 0.7832 0.6218 -12.6371 174.9452)" class="st1" width="4" height="4.1"/>
		
			<rect x="187.1" y="109.8" transform="matrix(0.6218 -0.7832 0.7832 0.6218 -16.0819 190.3942)" class="st1" width="4" height="4.1"/>
		
			<rect x="201.1" y="120.9" transform="matrix(0.6218 -0.7832 0.7832 0.6218 -19.4725 205.6061)" class="st1" width="4" height="4.1"/>
		
			<rect x="215.2" y="132.1" transform="matrix(0.6218 -0.7832 0.7832 0.6218 -22.9104 220.8271)" class="st1" width="4" height="4.1"/>
		
			<rect x="229.3" y="143.3" transform="matrix(0.6218 -0.7832 0.7832 0.6218 -26.3312 236.1217)" class="st1" width="4" height="4.1"/>
		
			<rect x="243.4" y="154.6" transform="matrix(0.6218 -0.7832 0.7832 0.6218 -29.8668 251.48)" class="st1" width="4" height="4.1"/>
		
			<rect x="257.5" y="165.7" transform="matrix(0.6218 -0.7832 0.7832 0.6218 -33.2464 266.7282)" class="st1" width="4" height="4.1"/>
		<rect x="270" y="175.6" transform="matrix(0.6218 -0.7832 0.7832 0.6218 -36.2853 280.205)" class="st1" width="4" height="4.1"/>
	</g>
	<g>
		<rect x="90" y="56.7" transform="matrix(0.6218 -0.7832 0.7832 0.6218 -11.2465 94.2666)" class="st1" width="4" height="4.1"/>
		<rect x="104" y="67.9" transform="matrix(0.6218 -0.7832 0.7832 0.6218 -14.6733 109.4896)" class="st1" width="4" height="4.1"/>
		<rect x="118.1" y="79" transform="matrix(0.6218 -0.7832 0.7832 0.6218 -18.0527 124.7377)" class="st1" width="4" height="4.1"/>
		
			<rect x="132.3" y="90.3" transform="matrix(0.6218 -0.7832 0.7832 0.6218 -21.5036 140.1152)" class="st1" width="4" height="4.1"/>
		
			<rect x="147.2" y="102.1" transform="matrix(0.6218 -0.7832 0.7832 0.6218 -25.1649 156.2465)" class="st1" width="4" height="4.1"/>
		
			<rect x="161.1" y="113.2" transform="matrix(0.6218 -0.7832 0.7832 0.6218 -28.5425 171.3019)" class="st1" width="4" height="4.1"/>
		
			<rect x="175.4" y="124.5" transform="matrix(0.6218 -0.7832 0.7832 0.6218 -32.0064 186.8358)" class="st1" width="4" height="4.1"/>
		
			<rect x="189.4" y="135.6" transform="matrix(0.6218 -0.7832 0.7832 0.6218 -35.4142 201.974)" class="st1" width="4" height="4.1"/>
		
			<rect x="203.6" y="146.8" transform="matrix(0.6218 -0.7832 0.7832 0.6218 -38.8237 217.3049)" class="st1" width="4" height="4.1"/>
		
			<rect x="217.6" y="158.1" transform="matrix(0.6218 -0.7832 0.7832 0.6218 -42.3656 232.5916)" class="st1" width="4" height="4.1"/>
		
			<rect x="231.8" y="169.3" transform="matrix(0.6218 -0.7832 0.7832 0.6218 -45.7802 247.9579)" class="st1" width="4" height="4.1"/>
		
			<rect x="245.8" y="180.4" transform="matrix(0.6218 -0.7832 0.7832 0.6218 -49.188 263.0961)" class="st1" width="4" height="4.1"/>
		
			<rect x="258.5" y="190.4" transform="matrix(0.6218 -0.7832 0.7832 0.6218 -52.2177 276.7677)" class="st1" width="4" height="4.1"/>
	</g>
	<g>
		<rect x="78.3" y="71.5" transform="matrix(0.6218 -0.7832 0.7832 0.6218 -27.2072 90.7194)" class="st1" width="4" height="4.1"/>
		
			<rect x="92.4" y="82.6" transform="matrix(0.6218 -0.7832 0.7832 0.6218 -30.5867 105.9674)" class="st1" width="4" height="4.1"/>
		
			<rect x="106.4" y="93.7" transform="matrix(0.6218 -0.7832 0.7832 0.6218 -33.9944 121.1056)" class="st1" width="4" height="4.1"/>
		<rect x="120.5" y="105" transform="matrix(0.6218 -0.7832 0.7832 0.6218 -37.5302 136.464)" class="st1" width="4" height="4.1"/>
		
			<rect x="135.5" y="116.9" transform="matrix(0.6218 -0.7832 0.7832 0.6218 -41.1257 152.6993)" class="st1" width="4" height="4.1"/>
		
			<rect x="149.5" y="127.9" transform="matrix(0.6218 -0.7832 0.7832 0.6218 -44.4921 167.791)" class="st1" width="4" height="4.1"/>
		
			<rect x="163.7" y="139.2" transform="matrix(0.6218 -0.7832 0.7832 0.6218 -47.9481 183.2037)" class="st1" width="4" height="4.1"/>
		
			<rect x="177.8" y="150.4" transform="matrix(0.6218 -0.7832 0.7832 0.6218 -51.3638 198.463)" class="st1" width="4" height="4.1"/>
		
			<rect x="191.8" y="161.5" transform="matrix(0.6218 -0.7832 0.7832 0.6218 -54.7655 213.6728)" class="st1" width="4" height="4.1"/>
		
			<rect x="206" y="172.7" transform="matrix(0.6218 -0.7832 0.7832 0.6218 -58.1861 228.9676)" class="st1" width="4" height="4.1"/>
		
			<rect x="220.1" y="184" transform="matrix(0.6218 -0.7832 0.7832 0.6218 -61.7219 244.3258)" class="st1" width="4" height="4.1"/>
		
			<rect x="234.1" y="195.1" transform="matrix(0.6218 -0.7832 0.7832 0.6218 -65.1296 259.464)" class="st1" width="4" height="4.1"/>
		
			<rect x="246.7" y="205.1" transform="matrix(0.6218 -0.7832 0.7832 0.6218 -68.1594 273.1356)" class="st1" width="4" height="4.1"/>
	</g>
	<g>
		<rect x="66.6" y="86.2" transform="matrix(0.6218 -0.7832 0.7832 0.6218 -43.1843 87.0823)" class="st1" width="4" height="4.1"/>
		
			<rect x="80.6" y="97.4" transform="matrix(0.6218 -0.7832 0.7832 0.6218 -46.6848 102.3225)" class="st1" width="4" height="4.1"/>
		
			<rect x="94.6" y="108.6" transform="matrix(0.6218 -0.7832 0.7832 0.6218 -50.1116 117.5455)" class="st1" width="4" height="4.1"/>
		
			<rect x="108.9" y="119.8" transform="matrix(0.6218 -0.7832 0.7832 0.6218 -53.5263 132.9117)" class="st1" width="4" height="4.1"/>
		
			<rect x="123.8" y="131.6" transform="matrix(0.6218 -0.7832 0.7832 0.6218 -57.1026 149.0622)" class="st1" width="4" height="4.1"/>
		
			<rect x="137.6" y="142.8" transform="matrix(0.6218 -0.7832 0.7832 0.6218 -60.6014 164.1097)" class="st1" width="4" height="4.1"/>
		
			<rect x="151.9" y="154" transform="matrix(0.6218 -0.7832 0.7832 0.6218 -64.0462 179.5587)" class="st1" width="4" height="4.1"/>
		<rect x="166" y="165.2" transform="matrix(0.6218 -0.7832 0.7832 0.6218 -67.4618 194.818)" class="st1" width="4" height="4.1"/>
		
			<rect x="180.1" y="176.4" transform="matrix(0.6218 -0.7832 0.7832 0.6218 -70.8826 210.1126)" class="st1" width="4" height="4.1"/>
		
			<rect x="194.2" y="187.6" transform="matrix(0.6218 -0.7832 0.7832 0.6218 -74.3034 225.4073)" class="st1" width="4" height="4.1"/>
		
			<rect x="208.3" y="198.9" transform="matrix(0.6218 -0.7832 0.7832 0.6218 -77.82 240.6808)" class="st1" width="4" height="4.1"/>
		
			<rect x="222.4" y="209.9" transform="matrix(0.6218 -0.7832 0.7832 0.6218 -81.1257 255.9117)" class="st1" width="4" height="4.1"/>
		
			<rect x="234.9" y="219.9" transform="matrix(0.6218 -0.7832 0.7832 0.6218 -84.2575 269.4905)" class="st1" width="4" height="4.1"/>
	</g>
	<g>
		<rect x="56.5" y="98.9" transform="matrix(0.6218 -0.7832 0.7832 0.6218 -56.974 84.0173)" class="st1" width="4" height="4.1"/>
		
			<rect x="70.6" y="110.1" transform="matrix(0.6218 -0.7832 0.7832 0.6218 -60.4009 99.2403)" class="st1" width="4" height="4.1"/>
		
			<rect x="84.6" y="121.2" transform="matrix(0.6218 -0.7832 0.7832 0.6218 -63.7974 114.4147)" class="st1" width="4" height="4.1"/>
		
			<rect x="98.7" y="132.5" transform="matrix(0.6218 -0.7832 0.7832 0.6218 -67.2595 129.756)" class="st1" width="4" height="4.1"/>
		
			<rect x="113.7" y="144.4" transform="matrix(0.6218 -0.7832 0.7832 0.6218 -70.9286 146.0085)" class="st1" width="4" height="4.1"/>
		
			<rect x="127.6" y="155.4" transform="matrix(0.6218 -0.7832 0.7832 0.6218 -74.3063 161.0639)" class="st1" width="4" height="4.1"/>
		
			<rect x="141.9" y="166.7" transform="matrix(0.6218 -0.7832 0.7832 0.6218 -77.751 176.5128)" class="st1" width="4" height="4.1"/>
		
			<rect x="155.9" y="177.9" transform="matrix(0.6218 -0.7832 0.7832 0.6218 -81.1779 191.7359)" class="st1" width="4" height="4.1"/>
		<rect x="170" y="189" transform="matrix(0.6218 -0.7832 0.7832 0.6218 -84.5795 206.9457)" class="st1" width="4" height="4.1"/>
		
			<rect x="184.2" y="200.3" transform="matrix(0.6218 -0.7832 0.7832 0.6218 -88.093 222.3424)" class="st1" width="4" height="4.1"/>
		
			<rect x="198.2" y="211.5" transform="matrix(0.6218 -0.7832 0.7832 0.6218 -91.536 237.5987)" class="st1" width="4" height="4.1"/>
		
			<rect x="212.3" y="222.7" transform="matrix(0.6218 -0.7832 0.7832 0.6218 -94.9517 252.858)" class="st1" width="4" height="4.1"/>
		
			<rect x="224.8" y="232.5" transform="matrix(0.6218 -0.7832 0.7832 0.6218 -97.9544 266.3236)" class="st1" width="4" height="4.1"/>
	</g>
	<g>
		<rect x="45.2" y="113.2" transform="matrix(0.6218 -0.7832 0.7832 0.6218 -72.423 80.5724)" class="st1" width="4" height="4.1"/>
		
			<rect x="59.2" y="124.3" transform="matrix(0.6218 -0.7832 0.7832 0.6218 -75.8308 95.7108)" class="st1" width="4" height="4.1"/>
		
			<rect x="73.2" y="135.5" transform="matrix(0.6218 -0.7832 0.7832 0.6218 -79.2577 110.9338)" class="st1" width="4" height="4.1"/>
		<rect x="87.4" y="146.7" transform="matrix(0.6218 -0.7832 0.7832 0.6218 -82.6723 126.3)" class="st1" width="4" height="4.1"/>
		
			<rect x="102.4" y="158.6" transform="matrix(0.6218 -0.7832 0.7832 0.6218 -86.3414 142.5524)" class="st1" width="4" height="4.1"/>
		
			<rect x="116.3" y="169.7" transform="matrix(0.6218 -0.7832 0.7832 0.6218 -89.7552 157.619)" class="st1" width="4" height="4.1"/>
		
			<rect x="130.6" y="181" transform="matrix(0.6218 -0.7832 0.7832 0.6218 -93.2001 173.0681)" class="st1" width="4" height="4.1"/>
		
			<rect x="144.5" y="192.2" transform="matrix(0.6218 -0.7832 0.7832 0.6218 -96.6927 188.1872)" class="st1" width="4" height="4.1"/>
		
			<rect x="158.6" y="203.3" transform="matrix(0.6218 -0.7832 0.7832 0.6218 -100.1135 203.4818)" class="st1" width="4" height="4.1"/>
		
			<rect x="172.7" y="214.5" transform="matrix(0.6218 -0.7832 0.7832 0.6218 -103.5342 218.7765)" class="st1" width="4" height="4.1"/>
		
			<rect x="186.9" y="225.8" transform="matrix(0.6218 -0.7832 0.7832 0.6218 -106.985 234.154)" class="st1" width="4" height="4.1"/>
		
			<rect x="201" y="236.9" transform="matrix(0.6218 -0.7832 0.7832 0.6218 -110.3645 249.402)" class="st1" width="4" height="4.1"/>
		
			<rect x="213.5" y="246.8" transform="matrix(0.6218 -0.7832 0.7832 0.6218 -113.4035 262.8788)" class="st1" width="4" height="4.1"/>
	</g>
	<g>
		
			<rect x="33.8" y="127.5" transform="matrix(0.6218 -0.7832 0.7832 0.6218 -87.9357 77.0127)" class="st1" width="4" height="4.1"/>
		
			<rect x="47.8" y="138.7" transform="matrix(0.6218 -0.7832 0.7832 0.6218 -91.4363 92.2529)" class="st1" width="4" height="4.1"/>
		
			<rect x="61.9" y="149.8" transform="matrix(0.6218 -0.7832 0.7832 0.6218 -94.742 107.4839)" class="st1" width="4" height="4.1"/>
		<rect x="76" y="161.1" transform="matrix(0.6218 -0.7832 0.7832 0.6218 -98.2778 122.8422)" class="st1" width="4" height="4.1"/>
		
			<rect x="91" y="172.9" transform="matrix(0.6218 -0.7832 0.7832 0.6218 -101.8541 138.9927)" class="st1" width="4" height="4.1"/>
		<rect x="105" y="184" transform="matrix(0.6218 -0.7832 0.7832 0.6218 -105.2396 154.1692)" class="st1" width="4" height="4.1"/>
		
			<rect x="119.2" y="195.3" transform="matrix(0.6218 -0.7832 0.7832 0.6218 -108.6956 169.582)" class="st1" width="4" height="4.1"/>
		
			<rect x="133.2" y="206.5" transform="matrix(0.6218 -0.7832 0.7832 0.6218 -112.177 184.7374)" class="st1" width="4" height="4.1"/>
		
			<rect x="147.3" y="217.7" transform="matrix(0.6218 -0.7832 0.7832 0.6218 -115.5978 200.032)" class="st1" width="4" height="4.1"/>
		
			<rect x="161.4" y="228.9" transform="matrix(0.6218 -0.7832 0.7832 0.6218 -119.0548 215.3378)" class="st1" width="4" height="4.1"/>
		
			<rect x="175.6" y="240.1" transform="matrix(0.6218 -0.7832 0.7832 0.6218 -122.4694 230.7041)" class="st1" width="4" height="4.1"/>
		
			<rect x="189.6" y="251.2" transform="matrix(0.6218 -0.7832 0.7832 0.6218 -125.8772 245.8423)" class="st1" width="4" height="4.1"/>
		
			<rect x="202.2" y="261.1" transform="matrix(0.6218 -0.7832 0.7832 0.6218 -128.8878 259.4289)" class="st1" width="4" height="4.1"/>
	</g>
	<g>
		<rect x="23.9" y="140" transform="matrix(0.6218 -0.7832 0.7832 0.6218 -101.4862 73.9909)" class="st1" width="4" height="4.1"/>
		<rect x="37.9" y="151.2" transform="matrix(0.6218 -0.7832 0.7832 0.6218 -104.913 89.214)" class="st1" width="4" height="4.1"/>
		
			<rect x="51.9" y="162.4" transform="matrix(0.6218 -0.7832 0.7832 0.6218 -108.4136 104.4542)" class="st1" width="4" height="4.1"/>
		
			<rect x="66.1" y="173.7" transform="matrix(0.6218 -0.7832 0.7832 0.6218 -111.8644 119.8316)" class="st1" width="4" height="4.1"/>
		<rect x="81" y="185.5" transform="matrix(0.6218 -0.7832 0.7832 0.6218 -115.5257 135.963)" class="st1" width="4" height="4.1"/>
		
			<rect x="95" y="196.5" transform="matrix(0.6218 -0.7832 0.7832 0.6218 -118.8184 151.0375)" class="st1" width="4" height="4.1"/>
		
			<rect x="109.2" y="207.9" transform="matrix(0.6218 -0.7832 0.7832 0.6218 -122.3481 166.4674)" class="st1" width="4" height="4.1"/>
		
			<rect x="123.2" y="219" transform="matrix(0.6218 -0.7832 0.7832 0.6218 -125.7749 181.6904)" class="st1" width="4" height="4.1"/>
		
			<rect x="137.3" y="230.1" transform="matrix(0.6218 -0.7832 0.7832 0.6218 -129.1766 196.9003)" class="st1" width="4" height="4.1"/>
		
			<rect x="151.5" y="241.4" transform="matrix(0.6218 -0.7832 0.7832 0.6218 -132.6052 212.316)" class="st1" width="4" height="4.1"/>
		
			<rect x="165.7" y="252.7" transform="matrix(0.6218 -0.7832 0.7832 0.6218 -136.0561 227.6934)" class="st1" width="4" height="4.1"/>
		
			<rect x="179.6" y="263.8" transform="matrix(0.6218 -0.7832 0.7832 0.6218 -139.5487 242.8125)" class="st1" width="4" height="4.1"/>
		
			<rect x="192.2" y="273.7" transform="matrix(0.6218 -0.7832 0.7832 0.6218 -142.4857 256.3821)" class="st1" width="4" height="4.1"/>
	</g>
	<g>
		
			<rect x="12.4" y="154.6" transform="matrix(0.6218 -0.7832 0.7832 0.6218 -117.246 70.5091)" class="st1" width="4" height="4.1"/>
		
			<rect x="26.4" y="165.7" transform="matrix(0.6218 -0.7832 0.7832 0.6218 -120.6367 85.721)" class="st1" width="4" height="4.1"/>
		
			<rect x="40.4" y="176.8" transform="matrix(0.6218 -0.7832 0.7832 0.6218 -124.0444 100.8592)" class="st1" width="4" height="4.1"/>
		
			<rect x="54.6" y="188.1" transform="matrix(0.6218 -0.7832 0.7832 0.6218 -127.4953 116.2365)" class="st1" width="4" height="4.1"/>
		
			<rect x="69.5" y="199.9" transform="matrix(0.6218 -0.7832 0.7832 0.6218 -131.1565 132.3679)" class="st1" width="4" height="4.1"/>
		
			<rect x="83.5" y="211" transform="matrix(0.6218 -0.7832 0.7832 0.6218 -134.5421 147.5444)" class="st1" width="4" height="4.1"/>
		
			<rect x="97.8" y="222.3" transform="matrix(0.6218 -0.7832 0.7832 0.6218 -137.9868 162.9935)" class="st1" width="4" height="4.1"/>
		
			<rect x="111.8" y="233.5" transform="matrix(0.6218 -0.7832 0.7832 0.6218 -141.4136 178.2166)" class="st1" width="4" height="4.1"/>
		
			<rect x="125.9" y="244.6" transform="matrix(0.6218 -0.7832 0.7832 0.6218 -144.8154 193.4263)" class="st1" width="4" height="4.1"/>
		
			<rect x="140" y="255.8" transform="matrix(0.6218 -0.7832 0.7832 0.6218 -148.2361 208.7209)" class="st1" width="4" height="4.1"/>
		
			<rect x="154.1" y="267.1" transform="matrix(0.6218 -0.7832 0.7832 0.6218 -151.7719 224.0794)" class="st1" width="4" height="4.1"/>
		
			<rect x="168.1" y="278.2" transform="matrix(0.6218 -0.7832 0.7832 0.6218 -155.1796 239.2175)" class="st1" width="4" height="4.1"/>
		
			<rect x="180.7" y="288.2" transform="matrix(0.6218 -0.7832 0.7832 0.6218 -158.2092 252.8891)" class="st1" width="4" height="4.1"/>
	</g>
	<g>
		<rect x="0.8" y="169.1" transform="matrix(0.6218 -0.7832 0.7832 0.6218 -132.9618 66.895)" class="st1" width="4" height="4.1"/>
		
			<rect x="14.8" y="180.2" transform="matrix(0.6218 -0.7832 0.7832 0.6218 -136.3886 82.1179)" class="st1" width="4" height="4.1"/>
		<rect x="29" y="191.3" transform="matrix(0.6218 -0.7832 0.7832 0.6218 -139.6832 97.3852)" class="st1" width="4" height="4.1"/>
		
			<rect x="43.1" y="202.6" transform="matrix(0.6218 -0.7832 0.7832 0.6218 -143.2189 112.7436)" class="st1" width="4" height="4.1"/>
		
			<rect x="58.1" y="214.4" transform="matrix(0.6218 -0.7832 0.7832 0.6218 -146.7953 128.894)" class="st1" width="4" height="4.1"/>
		
			<rect x="72" y="225.4" transform="matrix(0.6218 -0.7832 0.7832 0.6218 -150.1729 143.9494)" class="st1" width="4" height="4.1"/>
		
			<rect x="86.2" y="236.8" transform="matrix(0.6218 -0.7832 0.7832 0.6218 -153.7387 159.3906)" class="st1" width="4" height="4.1"/>
		
			<rect x="100.3" y="248" transform="matrix(0.6218 -0.7832 0.7832 0.6218 -157.1373 174.7235)" class="st1" width="4" height="4.1"/>
		
			<rect x="114.4" y="259.1" transform="matrix(0.6218 -0.7832 0.7832 0.6218 -160.539 189.9333)" class="st1" width="4" height="4.1"/>
		
			<rect x="128.5" y="270.4" transform="matrix(0.6218 -0.7832 0.7832 0.6218 -163.996 205.2391)" class="st1" width="4" height="4.1"/>
		
			<rect x="142.7" y="281.6" transform="matrix(0.6218 -0.7832 0.7832 0.6218 -167.4106 220.6054)" class="st1" width="4" height="4.1"/>
		
			<rect x="156.7" y="292.7" transform="matrix(0.6218 -0.7832 0.7832 0.6218 -170.8184 235.7435)" class="st1" width="4" height="4.1"/>
		
			<rect x="169.3" y="302.7" transform="matrix(0.6218 -0.7832 0.7832 0.6218 -173.9329 249.3961)" class="st1" width="4" height="4.1"/>
	</g>
</g>
</svg>
