<?xml version="1.0" encoding="utf-8"?>
<!-- Generator: Adobe Illustrator 22.1.0, SVG Export Plug-In . SVG Version: 6.00 Build 0)  -->
<svg version="1.1" id="Layer_1" xmlns="http://www.w3.org/2000/svg" xmlns:xlink="http://www.w3.org/1999/xlink" x="0px" y="0px"
	 viewBox="0 0 306.8 307.9" style="enable-background:new 0 0 306.8 307.9;" xml:space="preserve">
<style type="text/css">
	.st0{opacity:0.2;}
	.st1{fill:#FAFAFA;}
</style>
<g class="st0">
	<g>
		
			<rect x="104" y="274.1" transform="matrix(0.8299 -0.5579 0.5579 0.8299 -135.9889 106.1333)" class="st1" width="4.1" height="4"/>
		
			<rect x="118.8" y="264.1" transform="matrix(0.8299 -0.5579 0.5579 0.8299 -127.9107 112.6962)" class="st1" width="4.1" height="4"/>
		
			<rect x="133.7" y="254.1" transform="matrix(0.8299 -0.5579 0.5579 0.8299 -119.7871 119.2959)" class="st1" width="4.1" height="4"/>
		
			<rect x="148.7" y="244" transform="matrix(0.8299 -0.5579 0.5579 0.8299 -111.6073 125.9502)" class="st1" width="4.1" height="4"/>
		
			<rect x="164.6" y="233.4" transform="matrix(0.8299 -0.5579 0.5579 0.8299 -102.9961 133.0118)" class="st1" width="4.1" height="4"/>
		
			<rect x="179.4" y="223.5" transform="matrix(0.8299 -0.5579 0.5579 0.8299 -94.9418 139.5884)" class="st1" width="4.1" height="4"/>
		
			<rect x="194.5" y="213.3" transform="matrix(0.8299 -0.5579 0.5579 0.8299 -86.6927 146.2657)" class="st1" width="4.1" height="4"/>
		
			<rect x="209.4" y="203.3" transform="matrix(0.8299 -0.5579 0.5579 0.8299 -78.5693 152.8654)" class="st1" width="4.1" height="4"/>
		
			<rect x="224.3" y="193.3" transform="matrix(0.8299 -0.5579 0.5579 0.8299 -70.4586 159.4967)" class="st1" width="4.1" height="4"/>
		
			<rect x="239.2" y="183.3" transform="matrix(0.8299 -0.5579 0.5579 0.8299 -62.348 166.1279)" class="st1" width="4.1" height="4"/>
		
			<rect x="254.2" y="173.2" transform="matrix(0.8299 -0.5579 0.5579 0.8299 -54.1681 172.7822)" class="st1" width="4.1" height="4"/>
		
			<rect x="269.2" y="163.3" transform="matrix(0.8299 -0.5579 0.5579 0.8299 -46.0677 179.451)" class="st1" width="4.1" height="4"/>
		
			<rect x="282.4" y="154.3" transform="matrix(0.8299 -0.5579 0.5579 0.8299 -38.8374 185.2788)" class="st1" width="4.1" height="4"/>
	</g>
	<g>
		
			<rect x="114.3" y="289.4" transform="matrix(0.8299 -0.5579 0.5579 0.8299 -142.7891 114.4712)" class="st1" width="4.1" height="4"/>
		
			<rect x="129.2" y="279.4" transform="matrix(0.8299 -0.5579 0.5579 0.8299 -134.6657 121.0709)" class="st1" width="4.1" height="4"/>
		
			<rect x="144" y="269.4" transform="matrix(0.8299 -0.5579 0.5579 0.8299 -126.5874 127.6337)" class="st1" width="4.1" height="4"/>
		
			<rect x="159" y="259.3" transform="matrix(0.8299 -0.5579 0.5579 0.8299 -118.4075 134.288)" class="st1" width="4.1" height="4"/>
		
			<rect x="174.9" y="248.8" transform="matrix(0.8299 -0.5579 0.5579 0.8299 -109.8332 141.3948)" class="st1" width="4.1" height="4"/>
		
			<rect x="189.7" y="238.8" transform="matrix(0.8299 -0.5579 0.5579 0.8299 -101.7421 147.9262)" class="st1" width="4.1" height="4"/>
		
			<rect x="204.8" y="228.7" transform="matrix(0.8299 -0.5579 0.5579 0.8299 -93.5298 154.6488)" class="st1" width="4.1" height="4"/>
		
			<rect x="219.7" y="218.7" transform="matrix(0.8299 -0.5579 0.5579 0.8299 -85.4063 161.2486)" class="st1" width="4.1" height="4"/>
		
			<rect x="234.6" y="208.7" transform="matrix(0.8299 -0.5579 0.5579 0.8299 -77.2957 167.8797)" class="st1" width="4.1" height="4"/>
		
			<rect x="249.5" y="198.6" transform="matrix(0.8299 -0.5579 0.5579 0.8299 -69.1482 174.4657)" class="st1" width="4.1" height="4"/>
		
			<rect x="264.6" y="188.5" transform="matrix(0.8299 -0.5579 0.5579 0.8299 -60.9231 181.1568)" class="st1" width="4.1" height="4"/>
		
			<rect x="279.5" y="178.6" transform="matrix(0.8299 -0.5579 0.5579 0.8299 -52.8679 187.7889)" class="st1" width="4.1" height="4"/>
		
			<rect x="292.8" y="169.7" transform="matrix(0.8299 -0.5579 0.5579 0.8299 -45.6292 193.6987)" class="st1" width="4.1" height="4"/>
	</g>
	<g>
		
			<rect x="123.5" y="303.1" transform="matrix(0.8299 -0.5579 0.5579 0.8299 -148.8584 121.941)" class="st1" width="4.1" height="4"/>
		
			<rect x="138.3" y="293.1" transform="matrix(0.8299 -0.5579 0.5579 0.8299 -140.7801 128.5038)" class="st1" width="4.1" height="4"/>
		
			<rect x="153.2" y="283.1" transform="matrix(0.8299 -0.5579 0.5579 0.8299 -132.6566 135.1036)" class="st1" width="4.1" height="4"/>
		
			<rect x="168.2" y="273" transform="matrix(0.8299 -0.5579 0.5579 0.8299 -124.4767 141.7578)" class="st1" width="4.1" height="4"/>
		
			<rect x="184.1" y="262.4" transform="matrix(0.8299 -0.5579 0.5579 0.8299 -115.8656 148.8194)" class="st1" width="4.1" height="4"/>
		
			<rect x="198.9" y="252.5" transform="matrix(0.8299 -0.5579 0.5579 0.8299 -107.8113 155.396)" class="st1" width="4.1" height="4"/>
		<rect x="214" y="242.4" transform="matrix(0.8299 -0.5579 0.5579 0.8299 -99.599 162.1187)" class="st1" width="4.1" height="4"/>
		
			<rect x="228.9" y="232.4" transform="matrix(0.8299 -0.5579 0.5579 0.8299 -91.4755 168.7183)" class="st1" width="4.1" height="4"/>
		
			<rect x="243.8" y="222.3" transform="matrix(0.8299 -0.5579 0.5579 0.8299 -83.3281 175.3043)" class="st1" width="4.1" height="4"/>
		
			<rect x="258.7" y="212.3" transform="matrix(0.8299 -0.5579 0.5579 0.8299 -75.2174 181.9355)" class="st1" width="4.1" height="4"/>
		
			<rect x="273.8" y="202.2" transform="matrix(0.8299 -0.5579 0.5579 0.8299 -66.9923 188.6266)" class="st1" width="4.1" height="4"/>
		
			<rect x="288.7" y="192.3" transform="matrix(0.8299 -0.5579 0.5579 0.8299 -58.9371 195.2587)" class="st1" width="4.1" height="4"/>
		
			<rect x="301.9" y="183.4" transform="matrix(0.8299 -0.5579 0.5579 0.8299 -51.7437 201.1317)" class="st1" width="4.1" height="4"/>
	</g>
	<g>
		
			<rect x="83.3" y="243.4" transform="matrix(0.8299 -0.5579 0.5579 0.8299 -122.3968 89.3756)" class="st1" width="4.1" height="4"/>
		
			<rect x="98.2" y="233.4" transform="matrix(0.8299 -0.5579 0.5579 0.8299 -114.2733 95.9753)" class="st1" width="4.1" height="4"/>
		
			<rect x="113" y="223.4" transform="matrix(0.8299 -0.5579 0.5579 0.8299 -106.1951 102.5382)" class="st1" width="4.1" height="4"/>
		
			<rect x="128.1" y="213.3" transform="matrix(0.8299 -0.5579 0.5579 0.8299 -97.97 109.2293)" class="st1" width="4.1" height="4"/>
		
			<rect x="144" y="202.7" transform="matrix(0.8299 -0.5579 0.5579 0.8299 -89.3588 116.2908)" class="st1" width="4.1" height="4"/>
		
			<rect x="158.7" y="192.8" transform="matrix(0.8299 -0.5579 0.5579 0.8299 -81.3498 122.8306)" class="st1" width="4.1" height="4"/>
		
			<rect x="173.9" y="182.6" transform="matrix(0.8299 -0.5579 0.5579 0.8299 -73.0555 129.5448)" class="st1" width="4.1" height="4"/>
		
			<rect x="188.7" y="172.6" transform="matrix(0.8299 -0.5579 0.5579 0.8299 -64.9772 136.1077)" class="st1" width="4.1" height="4"/>
		
			<rect x="203.6" y="162.6" transform="matrix(0.8299 -0.5579 0.5579 0.8299 -56.8666 142.7389)" class="st1" width="4.1" height="4"/>
		
			<rect x="218.6" y="152.6" transform="matrix(0.8299 -0.5579 0.5579 0.8299 -48.7107 149.4069)" class="st1" width="4.1" height="4"/>
		
			<rect x="233.6" y="142.5" transform="matrix(0.8299 -0.5579 0.5579 0.8299 -40.5308 156.0612)" class="st1" width="4.1" height="4"/>
		
			<rect x="248.5" y="132.6" transform="matrix(0.8299 -0.5579 0.5579 0.8299 -32.4756 162.6933)" class="st1" width="4.1" height="4"/>
		
			<rect x="261.8" y="123.6" transform="matrix(0.8299 -0.5579 0.5579 0.8299 -25.2001 168.5579)" class="st1" width="4.1" height="4"/>
	</g>
	<g>
		
			<rect x="93.7" y="258.7" transform="matrix(0.8299 -0.5579 0.5579 0.8299 -129.1519 97.7502)" class="st1" width="4.1" height="4"/>
		
			<rect x="108.5" y="248.7" transform="matrix(0.8299 -0.5579 0.5579 0.8299 -121.0736 104.3131)" class="st1" width="4.1" height="4"/>
		
			<rect x="123.4" y="238.7" transform="matrix(0.8299 -0.5579 0.5579 0.8299 -112.9501 110.9128)" class="st1" width="4.1" height="4"/>
		
			<rect x="138.4" y="228.6" transform="matrix(0.8299 -0.5579 0.5579 0.8299 -104.7702 117.5671)" class="st1" width="4.1" height="4"/>
		
			<rect x="154.3" y="218.1" transform="matrix(0.8299 -0.5579 0.5579 0.8299 -96.1959 124.6739)" class="st1" width="4.1" height="4"/>
		
			<rect x="169.1" y="208.1" transform="matrix(0.8299 -0.5579 0.5579 0.8299 -88.1048 131.2053)" class="st1" width="4.1" height="4"/>
		
			<rect x="184.2" y="198" transform="matrix(0.8299 -0.5579 0.5579 0.8299 -79.8925 137.9279)" class="st1" width="4.1" height="4"/>
		<rect x="199" y="188" transform="matrix(0.8299 -0.5579 0.5579 0.8299 -71.8143 144.4908)" class="st1" width="4.1" height="4"/>
		<rect x="214" y="178" transform="matrix(0.8299 -0.5579 0.5579 0.8299 -63.6584 151.1588)" class="st1" width="4.1" height="4"/>
		
			<rect x="228.9" y="167.9" transform="matrix(0.8299 -0.5579 0.5579 0.8299 -55.5109 157.7448)" class="st1" width="4.1" height="4"/>
		
			<rect x="243.9" y="157.8" transform="matrix(0.8299 -0.5579 0.5579 0.8299 -47.3311 164.399)" class="st1" width="4.1" height="4"/>
		
			<rect x="258.8" y="147.9" transform="matrix(0.8299 -0.5579 0.5579 0.8299 -39.2759 171.0312)" class="st1" width="4.1" height="4"/>
		<rect x="272.1" y="139" transform="matrix(0.8299 -0.5579 0.5579 0.8299 -32.0371 176.941)" class="st1" width="4.1" height="4"/>
	</g>
	<g>
		
			<rect x="62.7" y="212.7" transform="matrix(0.8299 -0.5579 0.5579 0.8299 -108.7596 72.6546)" class="st1" width="4.1" height="4"/>
		
			<rect x="77.6" y="202.7" transform="matrix(0.8299 -0.5579 0.5579 0.8299 -100.636 79.2543)" class="st1" width="4.1" height="4"/>
		
			<rect x="92.4" y="192.7" transform="matrix(0.8299 -0.5579 0.5579 0.8299 -92.5578 85.8172)" class="st1" width="4.1" height="4"/>
		
			<rect x="107.4" y="182.6" transform="matrix(0.8299 -0.5579 0.5579 0.8299 -84.3779 92.4715)" class="st1" width="4.1" height="4"/>
		<rect x="123.3" y="172" transform="matrix(0.8299 -0.5579 0.5579 0.8299 -75.7667 99.5331)" class="st1" width="4.1" height="4"/>
		
			<rect x="138.1" y="162.1" transform="matrix(0.8299 -0.5579 0.5579 0.8299 -67.7125 106.1097)" class="st1" width="4.1" height="4"/>
		
			<rect x="153.2" y="151.9" transform="matrix(0.8299 -0.5579 0.5579 0.8299 -59.4634 112.7871)" class="st1" width="4.1" height="4"/>
		
			<rect x="168.1" y="141.9" transform="matrix(0.8299 -0.5579 0.5579 0.8299 -51.3399 119.3867)" class="st1" width="4.1" height="4"/>
		<rect x="183" y="131.9" transform="matrix(0.8299 -0.5579 0.5579 0.8299 -43.2293 126.018)" class="st1" width="4.1" height="4"/>
		
			<rect x="197.9" y="121.9" transform="matrix(0.8299 -0.5579 0.5579 0.8299 -35.1186 132.6492)" class="st1" width="4.1" height="4"/>
		
			<rect x="213" y="111.8" transform="matrix(0.8299 -0.5579 0.5579 0.8299 -26.8935 139.3403)" class="st1" width="4.1" height="4"/>
		
			<rect x="227.9" y="101.8" transform="matrix(0.8299 -0.5579 0.5579 0.8299 -18.8015 145.9272)" class="st1" width="4.1" height="4"/>
		
			<rect x="241.2" y="92.9" transform="matrix(0.8299 -0.5579 0.5579 0.8299 -11.5628 151.837)" class="st1" width="4.1" height="4"/>
	</g>
	<g>
		<rect x="73" y="228" transform="matrix(0.8299 -0.5579 0.5579 0.8299 -115.5598 80.9925)" class="st1" width="4.1" height="4"/>
		<rect x="87.9" y="218" transform="matrix(0.8299 -0.5579 0.5579 0.8299 -107.4363 87.5922)" class="st1" width="4.1" height="4"/>
		<rect x="102.7" y="208" transform="matrix(0.8299 -0.5579 0.5579 0.8299 -99.358 94.1551)" class="st1" width="4.1" height="4"/>
		
			<rect x="117.7" y="197.9" transform="matrix(0.8299 -0.5579 0.5579 0.8299 -91.1782 100.8093)" class="st1" width="4.1" height="4"/>
		
			<rect x="133.7" y="187.4" transform="matrix(0.8299 -0.5579 0.5579 0.8299 -82.5586 107.953)" class="st1" width="4.1" height="4"/>
		
			<rect x="148.4" y="177.4" transform="matrix(0.8299 -0.5579 0.5579 0.8299 -74.5127 114.4476)" class="st1" width="4.1" height="4"/>
		
			<rect x="163.5" y="167.3" transform="matrix(0.8299 -0.5579 0.5579 0.8299 -66.3004 121.1702)" class="st1" width="4.1" height="4"/>
		
			<rect x="178.4" y="157.3" transform="matrix(0.8299 -0.5579 0.5579 0.8299 -58.177 127.7699)" class="st1" width="4.1" height="4"/>
		
			<rect x="193.3" y="147.2" transform="matrix(0.8299 -0.5579 0.5579 0.8299 -50.0295 134.3558)" class="st1" width="4.1" height="4"/>
		
			<rect x="208.3" y="137.2" transform="matrix(0.8299 -0.5579 0.5579 0.8299 -41.8736 141.0238)" class="st1" width="4.1" height="4"/>
		
			<rect x="223.3" y="127.1" transform="matrix(0.8299 -0.5579 0.5579 0.8299 -33.6937 147.6781)" class="st1" width="4.1" height="4"/>
		
			<rect x="238.2" y="117.2" transform="matrix(0.8299 -0.5579 0.5579 0.8299 -25.6386 154.3102)" class="st1" width="4.1" height="4"/>
		
			<rect x="251.5" y="108.3" transform="matrix(0.8299 -0.5579 0.5579 0.8299 -18.3999 160.22)" class="st1" width="4.1" height="4"/>
	</g>
	<g>
		
			<rect x="42.1" y="181.9" transform="matrix(0.8299 -0.5579 0.5579 0.8299 -95.0855 55.8885)" class="st1" width="4.1" height="4"/>
		<rect x="56.9" y="172" transform="matrix(0.8299 -0.5579 0.5579 0.8299 -87.044 62.4966)" class="st1" width="4.1" height="4"/>
		<rect x="71.8" y="162" transform="matrix(0.8299 -0.5579 0.5579 0.8299 -78.9205 69.0963)" class="st1" width="4.1" height="4"/>
		
			<rect x="86.8" y="151.9" transform="matrix(0.8299 -0.5579 0.5579 0.8299 -70.7406 75.7506)" class="st1" width="4.1" height="4"/>
		
			<rect x="102.7" y="141.3" transform="matrix(0.8299 -0.5579 0.5579 0.8299 -62.1294 82.8121)" class="st1" width="4.1" height="4"/>
		
			<rect x="117.5" y="131.4" transform="matrix(0.8299 -0.5579 0.5579 0.8299 -54.0752 89.3888)" class="st1" width="4.1" height="4"/>
		
			<rect x="132.6" y="121.2" transform="matrix(0.8299 -0.5579 0.5579 0.8299 -45.8261 96.0661)" class="st1" width="4.1" height="4"/>
		
			<rect x="147.4" y="111.2" transform="matrix(0.8299 -0.5579 0.5579 0.8299 -37.7479 102.629)" class="st1" width="4.1" height="4"/>
		
			<rect x="162.4" y="101.2" transform="matrix(0.8299 -0.5579 0.5579 0.8299 -29.592 109.2971)" class="st1" width="4.1" height="4"/>
		
			<rect x="177.3" y="91.1" transform="matrix(0.8299 -0.5579 0.5579 0.8299 -21.4445 115.883)" class="st1" width="4.1" height="4"/>
		<rect x="192.3" y="81" transform="matrix(0.8299 -0.5579 0.5579 0.8299 -13.2646 122.5373)" class="st1" width="4.1" height="4"/>
		
			<rect x="207.2" y="71.1" transform="matrix(0.8299 -0.5579 0.5579 0.8299 -5.2094 129.1694)" class="st1" width="4.1" height="4"/>
		<rect x="220.5" y="62.2" transform="matrix(0.8299 -0.5579 0.5579 0.8299 2.0293 135.0793)" class="st1" width="4.1" height="4"/>
	</g>
	<g>
		
			<rect x="52.4" y="197.3" transform="matrix(0.8299 -0.5579 0.5579 0.8299 -101.9225 64.2716)" class="st1" width="4.1" height="4"/>
		
			<rect x="67.2" y="187.3" transform="matrix(0.8299 -0.5579 0.5579 0.8299 -93.8442 70.8344)" class="st1" width="4.1" height="4"/>
		
			<rect x="82.1" y="177.3" transform="matrix(0.8299 -0.5579 0.5579 0.8299 -85.7207 77.4342)" class="st1" width="4.1" height="4"/>
		
			<rect x="97.1" y="167.2" transform="matrix(0.8299 -0.5579 0.5579 0.8299 -77.5409 84.0884)" class="st1" width="4.1" height="4"/>
		<rect x="113" y="156.7" transform="matrix(0.8299 -0.5579 0.5579 0.8299 -68.9665 91.1952)" class="st1" width="4.1" height="4"/>
		
			<rect x="127.8" y="146.7" transform="matrix(0.8299 -0.5579 0.5579 0.8299 -60.8754 97.7266)" class="st1" width="4.1" height="4"/>
		
			<rect x="142.9" y="136.6" transform="matrix(0.8299 -0.5579 0.5579 0.8299 -52.6632 104.4492)" class="st1" width="4.1" height="4"/>
		
			<rect x="157.7" y="126.6" transform="matrix(0.8299 -0.5579 0.5579 0.8299 -44.5849 111.0121)" class="st1" width="4.1" height="4"/>
		
			<rect x="172.7" y="116.5" transform="matrix(0.8299 -0.5579 0.5579 0.8299 -36.3922 117.6349)" class="st1" width="4.1" height="4"/>
		
			<rect x="187.6" y="106.5" transform="matrix(0.8299 -0.5579 0.5579 0.8299 -28.2815 124.2661)" class="st1" width="4.1" height="4"/>
		
			<rect x="202.6" y="96.4" transform="matrix(0.8299 -0.5579 0.5579 0.8299 -20.1017 130.9204)" class="st1" width="4.1" height="4"/>
		
			<rect x="217.6" y="86.5" transform="matrix(0.8299 -0.5579 0.5579 0.8299 -12.0013 137.5893)" class="st1" width="4.1" height="4"/>
		
			<rect x="230.8" y="77.6" transform="matrix(0.8299 -0.5579 0.5579 0.8299 -4.8078 143.4623)" class="st1" width="4.1" height="4"/>
	</g>
	<g>
		
			<rect x="21.4" y="151.2" transform="matrix(0.8299 -0.5579 0.5579 0.8299 -81.4933 39.1307)" class="st1" width="4.1" height="4"/>
		
			<rect x="36.3" y="141.3" transform="matrix(0.8299 -0.5579 0.5579 0.8299 -73.4067 45.7756)" class="st1" width="4.1" height="4"/>
		
			<rect x="51.1" y="131.3" transform="matrix(0.8299 -0.5579 0.5579 0.8299 -65.3284 52.3386)" class="st1" width="4.1" height="4"/>
		
			<rect x="66.1" y="121.2" transform="matrix(0.8299 -0.5579 0.5579 0.8299 -57.1486 58.9928)" class="st1" width="4.1" height="4"/>
		<rect x="82" y="110.6" transform="matrix(0.8299 -0.5579 0.5579 0.8299 -48.5374 66.0544)" class="st1" width="4.1" height="4"/>
		
			<rect x="96.8" y="100.7" transform="matrix(0.8299 -0.5579 0.5579 0.8299 -40.4831 72.6311)" class="st1" width="4.1" height="4"/>
		
			<rect x="111.9" y="90.5" transform="matrix(0.8299 -0.5579 0.5579 0.8299 -32.2341 79.3084)" class="st1" width="4.1" height="4"/>
		
			<rect x="126.8" y="80.5" transform="matrix(0.8299 -0.5579 0.5579 0.8299 -24.1106 85.9081)" class="st1" width="4.1" height="4"/>
		
			<rect x="141.7" y="70.5" transform="matrix(0.8299 -0.5579 0.5579 0.8299 -15.9999 92.5393)" class="st1" width="4.1" height="4"/>
		<rect x="156.7" y="60.4" transform="matrix(0.8299 -0.5579 0.5579 0.8299 -7.8072 99.1621)" class="st1" width="4.1" height="4"/>
		<rect x="171.7" y="50.3" transform="matrix(0.8299 -0.5579 0.5579 0.8299 0.3727 105.8164)" class="st1" width="4.1" height="4"/>
		<rect x="186.6" y="40.4" transform="matrix(0.8299 -0.5579 0.5579 0.8299 8.4279 112.4485)" class="st1" width="4.1" height="4"/>
		
			<rect x="199.9" y="31.5" transform="matrix(0.8299 -0.5579 0.5579 0.8299 15.6665 118.3583)" class="st1" width="4.1" height="4"/>
	</g>
	<g>
		
			<rect x="31.7" y="166.6" transform="matrix(0.8299 -0.5579 0.5579 0.8299 -88.3304 47.5138)" class="st1" width="4.1" height="4"/>
		
			<rect x="46.6" y="156.6" transform="matrix(0.8299 -0.5579 0.5579 0.8299 -80.2069 54.1135)" class="st1" width="4.1" height="4"/>
		
			<rect x="61.4" y="146.6" transform="matrix(0.8299 -0.5579 0.5579 0.8299 -72.1287 60.6764)" class="st1" width="4.1" height="4"/>
		
			<rect x="76.5" y="136.5" transform="matrix(0.8299 -0.5579 0.5579 0.8299 -63.9036 67.3675)" class="st1" width="4.1" height="4"/>
		<rect x="92.4" y="125.9" transform="matrix(0.8299 -0.5579 0.5579 0.8299 -55.2924 74.429)" class="st1" width="4.1" height="4"/>
		<rect x="107.1" y="116" transform="matrix(0.8299 -0.5579 0.5579 0.8299 -47.2834 80.9689)" class="st1" width="4.1" height="4"/>
		
			<rect x="122.2" y="105.9" transform="matrix(0.8299 -0.5579 0.5579 0.8299 -39.0711 87.6915)" class="st1" width="4.1" height="4"/>
		
			<rect x="137.1" y="95.9" transform="matrix(0.8299 -0.5579 0.5579 0.8299 -30.9476 94.2912)" class="st1" width="4.1" height="4"/>
		<rect x="152" y="85.8" transform="matrix(0.8299 -0.5579 0.5579 0.8299 -22.8001 100.8771)" class="st1" width="4.1" height="4"/>
		<rect x="167" y="75.8" transform="matrix(0.8299 -0.5579 0.5579 0.8299 -14.6442 107.5452)" class="st1" width="4.1" height="4"/>
		<rect x="182" y="65.7" transform="matrix(0.8299 -0.5579 0.5579 0.8299 -6.4644 114.1995)" class="st1" width="4.1" height="4"/>
		<rect x="196.9" y="55.8" transform="matrix(0.8299 -0.5579 0.5579 0.8299 1.5908 120.8316)" class="st1" width="4.1" height="4"/>
		<rect x="210.2" y="46.9" transform="matrix(0.8299 -0.5579 0.5579 0.8299 8.8295 126.7414)" class="st1" width="4.1" height="4"/>
	</g>
	<g>
		<rect x="0.8" y="120.5" transform="matrix(0.8299 -0.5579 0.5579 0.8299 -67.8561 22.4098)" class="st1" width="4.1" height="4"/>
		
			<rect x="15.6" y="110.5" transform="matrix(0.8299 -0.5579 0.5579 0.8299 -59.7778 28.9727)" class="st1" width="4.1" height="4"/>
		
			<rect x="30.5" y="100.6" transform="matrix(0.8299 -0.5579 0.5579 0.8299 -51.6912 35.6177)" class="st1" width="4.1" height="4"/>
		<rect x="45.5" y="90.5" transform="matrix(0.8299 -0.5579 0.5579 0.8299 -43.5113 42.2719)" class="st1" width="4.1" height="4"/>
		<rect x="61.4" y="79.9" transform="matrix(0.8299 -0.5579 0.5579 0.8299 -34.9001 49.3334)" class="st1" width="4.1" height="4"/>
		<rect x="76.2" y="70" transform="matrix(0.8299 -0.5579 0.5579 0.8299 -26.8458 55.9101)" class="st1" width="4.1" height="4"/>
		<rect x="91.3" y="59.8" transform="matrix(0.8299 -0.5579 0.5579 0.8299 -18.5968 62.5875)" class="st1" width="4.1" height="4"/>
		
			<rect x="106.1" y="49.8" transform="matrix(0.8299 -0.5579 0.5579 0.8299 -10.5185 69.1504)" class="st1" width="4.1" height="4"/>
		<rect x="121.1" y="39.8" transform="matrix(0.8299 -0.5579 0.5579 0.8299 -2.3626 75.8183)" class="st1" width="4.1" height="4"/>
		<rect x="136" y="29.7" transform="matrix(0.8299 -0.5579 0.5579 0.8299 5.7849 82.4043)" class="st1" width="4.1" height="4"/>
		<rect x="151" y="19.6" transform="matrix(0.8299 -0.5579 0.5579 0.8299 13.9647 89.0586)" class="st1" width="4.1" height="4"/>
		<rect x="165.9" y="9.7" transform="matrix(0.8299 -0.5579 0.5579 0.8299 22.0199 95.6907)" class="st1" width="4.1" height="4"/>
		<rect x="179.2" y="0.8" transform="matrix(0.8299 -0.5579 0.5579 0.8299 29.2586 101.6006)" class="st1" width="4.1" height="4"/>
	</g>
	<g>
		
			<rect x="11.1" y="135.9" transform="matrix(0.8299 -0.5579 0.5579 0.8299 -74.6931 30.7928)" class="st1" width="4.1" height="4"/>
		
			<rect x="25.9" y="125.9" transform="matrix(0.8299 -0.5579 0.5579 0.8299 -66.6149 37.3558)" class="st1" width="4.1" height="4"/>
		
			<rect x="40.8" y="115.9" transform="matrix(0.8299 -0.5579 0.5579 0.8299 -58.4914 43.9555)" class="st1" width="4.1" height="4"/>
		
			<rect x="55.8" y="105.8" transform="matrix(0.8299 -0.5579 0.5579 0.8299 -50.3116 50.6097)" class="st1" width="4.1" height="4"/>
		<rect x="71.7" y="95.2" transform="matrix(0.8299 -0.5579 0.5579 0.8299 -41.7003 57.6713)" class="st1" width="4.1" height="4"/>
		<rect x="86.5" y="85.3" transform="matrix(0.8299 -0.5579 0.5579 0.8299 -33.6461 64.248)" class="st1" width="4.1" height="4"/>
		
			<rect x="101.6" y="75.2" transform="matrix(0.8299 -0.5579 0.5579 0.8299 -25.4338 70.9706)" class="st1" width="4.1" height="4"/>
		
			<rect x="116.5" y="65.2" transform="matrix(0.8299 -0.5579 0.5579 0.8299 -17.3103 77.5702)" class="st1" width="4.1" height="4"/>
		<rect x="131.4" y="55.1" transform="matrix(0.8299 -0.5579 0.5579 0.8299 -9.1628 84.1562)" class="st1" width="4.1" height="4"/>
		<rect x="146.3" y="45.1" transform="matrix(0.8299 -0.5579 0.5579 0.8299 -1.0522 90.7874)" class="st1" width="4.1" height="4"/>
		<rect x="161.4" y="35" transform="matrix(0.8299 -0.5579 0.5579 0.8299 7.1729 97.4785)" class="st1" width="4.1" height="4"/>
		
			<rect x="176.3" y="25.1" transform="matrix(0.8299 -0.5579 0.5579 0.8299 15.2281 104.1106)" class="st1" width="4.1" height="4"/>
		
			<rect x="189.5" y="16.2" transform="matrix(0.8299 -0.5579 0.5579 0.8299 22.4215 109.9837)" class="st1" width="4.1" height="4"/>
	</g>
</g>
</svg>
